<?xml version="1.0" encoding="UTF-8" standalone="no"?>
<!-- Created with Inkscape (http://www.inkscape.org/) -->

<svg
   width="129.94731mm"
   height="128.22777mm"
   viewBox="0 0 129.94731 128.22777"
   version="1.1"
   id="svg1"
   xml:space="preserve"
   inkscape:version="1.4.2 (f4327f4, 2025-05-13)"
   sodipodi:docname="nimbo-logo-horizontal-preto.svg"
   inkscape:export-filename="..\img\nimbo-logo-horizontal-preto-224x56.png"
   inkscape:export-xdpi="83.789116"
   inkscape:export-ydpi="83.789116"
   xmlns:inkscape="http://www.inkscape.org/namespaces/inkscape"
   xmlns:sodipodi="http://sodipodi.sourceforge.net/DTD/sodipodi-0.dtd"
   xmlns="http://www.w3.org/2000/svg"
   xmlns:svg="http://www.w3.org/2000/svg"><sodipodi:namedview
     id="namedview1"
     pagecolor="#ffffff"
     bordercolor="#000000"
     borderopacity="0.25"
     inkscape:showpageshadow="2"
     inkscape:pageopacity="0.0"
     inkscape:pagecheckerboard="0"
     inkscape:deskcolor="#d1d1d1"
     inkscape:document-units="mm"
     inkscape:zoom="0.71891835"
     inkscape:cx="299.75588"
     inkscape:cy="251.07163"
     inkscape:window-width="1920"
     inkscape:window-height="1009"
     inkscape:window-x="-8"
     inkscape:window-y="-8"
     inkscape:window-maximized="1"
     inkscape:current-layer="layer1" /><defs
     id="defs1" /><g
     inkscape:label="Camada 1"
     inkscape:groupmode="layer"
     id="layer1"
     transform="translate(-25.936002,-111.63327)"><g
       id="g5"
       transform="translate(2.5762101,7.3605944)"><path
         style="fill:#a165b9;stroke:none"
         d="m 99.317458,158.1693 0.264583,0.26458 -0.264583,-0.26458 m -0.264583,0.26458 0.264583,0.26459 -0.264583,-0.26459 m -0.176395,0.44098 0.08821,0.17638 -0.08821,-0.17638 m -0.352772,0.35277 0.264583,0.26459 -0.264583,-0.26459 m -0.176394,0.44098 0.08821,0.17638 -0.08821,-0.17638 m -0.352773,0.35277 0.264584,0.26459 -0.264584,-0.26459 m -0.176394,0.44098 0.08821,0.17638 -0.08821,-0.17638 m -0.352772,0.35277 0.264583,0.26459 -0.264583,-0.26459 m -0.176395,0.44098 0.08821,0.17638 -0.08821,-0.17638 m -0.352772,0.35277 0.264583,0.26459 -0.264583,-0.26459 m -0.176394,0.44098 0.0882,0.17638 -0.0882,-0.17638 m -0.352773,0.35277 0.264584,0.26459 -0.264584,-0.26459 m -0.264583,0.26459 -0.264583,0.79375 0.264583,-0.79375 m -0.529167,0.79375 0.264584,0.26458 -0.264584,-0.26458 m -0.176394,0.44097 0.08821,0.17638 -0.08821,-0.17638 m -0.352772,0.35278 0.264583,0.26458 -0.264583,-0.26458 m -0.176394,0.44097 0.08821,0.17638 -0.08821,-0.17638 m -0.352773,0.35278 0.264583,0.26458 -0.264583,-0.26458 m -0.264583,0.52916 0.264583,0.26459 -0.264583,-0.26459 m -0.264584,0.26459 0.264584,0.26458 -0.264584,-0.26458 m -0.176394,0.44097 0.08821,0.17638 -0.08821,-0.17638 m -0.352772,0.35278 0.264583,0.26458 -0.264583,-0.26458 m -0.176394,0.44097 0.0882,0.17638 -0.0882,-0.17638 m -0.352773,0.35278 0.264584,0.26458 -0.264584,-0.26458 m -0.176394,0.44097 0.0882,0.17638 -0.0882,-0.17638 m -0.352772,0.35277 0.264583,0.26459 -0.264583,-0.26459 m -0.176395,0.44097 0.08821,0.17641 -0.08821,-0.17641 m -0.352772,0.35278 0.264583,0.26459 -0.264583,-0.26459 m -0.176394,0.44097 0.08821,0.17641 -0.08821,-0.17641 m -0.352773,0.35278 0.264584,0.26459 -0.264584,-0.26459 m -0.176394,0.44097 0.08821,0.17641 -0.08821,-0.17641 m -0.352772,0.35278 0.264583,0.26459 -0.264583,-0.26459 m -0.264584,0.26459 0.264584,0.26458 -0.264584,-0.26458 m -0.176386,0.44096 0.08819,0.17641 -0.08819,-0.17641 m -0.35278,0.35279 0.264583,0.26458 -0.264583,-0.26458 m -0.176386,0.44096 0.08819,0.17641 -0.08819,-0.17641 m -0.352781,0.35279 0.264583,0.26458 -0.264583,-0.26458 m -0.264583,0.52916 0.264583,0.26459 -0.264583,-0.26459 m -0.264584,0.26459 0.264584,0.26458 -0.264584,-0.26458 m -0.176386,0.44096 0.08819,0.17641 -0.08819,-0.17641 m -0.35278,0.35279 0.264583,0.26458 -0.264583,-0.26458 m -0.176386,0.44096 0.08819,0.17641 -0.08819,-0.17641 m -0.352781,0.35279 0.264583,0.26458 -0.264583,-0.26458 m -0.264583,0.52916 0.264583,0.26459 -0.264583,-0.26459 m -0.264583,0.26459 0.264583,0.26458 -0.264583,-0.26458 m -0.176387,0.44096 0.08819,0.17641 -0.08819,-0.17641 m -0.35278,0.35279 0.264583,0.26458 -0.264583,-0.26458 m -0.264583,0.52916 0.264583,0.26459 -0.264583,-0.26459 m -0.264584,0.26459 0.264584,0.26458 -0.264584,-0.26458 m -0.176386,0.44096 0.08819,0.17641 -0.08819,-0.17641 m -0.35278,0.35279 0.264583,0.26458 -0.264583,-0.26458 m -0.176387,0.44096 0.08819,0.17641 -0.08819,-0.17641 m -0.35278,0.35279 0.264583,0.26458 -0.264583,-0.26458 m -0.264583,0.52916 0.264583,0.26459 -0.264583,-0.26459 m -0.264584,0.26459 0.264584,0.26458 -0.264584,-0.26458 m -0.176386,0.44096 0.08819,0.17641 -0.08819,-0.17641 m -0.35278,0.35279 0.264583,0.26458 -0.264583,-0.26458 m -0.176387,0.44096 0.08819,0.17641 -0.08819,-0.17641 m -0.35278,0.35279 0.264583,0.26458 -0.264583,-0.26458 m -0.176386,0.44096 0.08819,0.17641 -0.08819,-0.17641 m -0.352781,0.35279 0.264584,0.26458 -0.264584,-0.26458 m -0.264583,0.26458 0.264583,0.26458 -0.264583,-0.26458 m -0.264583,0.52917 0.264583,0.26458 -0.264583,-0.26458 m -0.264584,0.26458 0.264584,0.26458 z"
         id="path8" /><path
         style="fill:#711999;stroke:none"
         d="m 23.911212,104.72347 v 95.77916 23.28333 c 0,1.52707 -0.827469,6.94816 0.424231,7.92994 0.651898,0.51134 1.753704,0.12214 2.486185,0.0525 1.915274,-0.18215 3.897816,-0.0449 5.820833,-0.0449 h 23.547916 v -52.65208 -16.66875 l 0.264583,-8.73125 h 0.529167 c 1.255866,2.31745 3.334066,4.29036 4.971345,6.34898 3.906084,4.91132 8.040077,9.64698 11.935043,14.56352 2.194488,2.77007 5.008043,7.73543 8.229027,9.25 4.27511,-6.33718 8.683837,-12.61588 12.809424,-19.05 1.183665,-1.84599 4.414266,-4.91213 4.512418,-7.14375 0.08066,-1.83387 -2.977127,-4.46923 -4.088994,-5.79716 -4.029825,-4.8129 -7.922408,-9.74525 -11.931369,-14.57575 -6.45202,-7.77422 -12.793421,-15.64309 -19.179836,-23.47237 -1.949235,-2.38962 -4.735644,-7.7089 -7.597388,-8.91173 -2.479952,-1.04237 -7.024215,-0.15965 -9.713836,-0.15965 z"
         id="path7" /><path
         style="fill:#04eaf0;stroke:none"
         d="m 120.48412,104.45888 v 77.7875 c -4.8028,-5.21808 -9.19654,-11.09264 -13.58337,-16.66875 -1.91788,-2.43782 -4.23828,-6.56544 -7.054125,-7.9375 -4.405109,6.52972 -8.859827,13.02518 -13.229166,19.57917 -1.077422,1.61613 -4.570401,5.18905 -4.435041,7.14375 0.112235,1.62078 2.501801,3.55924 3.4796,4.7625 3.368342,4.145 6.717605,8.30437 10.103574,12.43541 5.865678,7.1564 11.750248,14.29861 17.640928,21.43125 2.14984,2.60309 4.83801,7.45305 7.87237,8.98849 1.5267,0.77254 3.67899,0.0883 5.29065,0.0178 4.04094,-0.17697 8.12578,-0.0104 12.17083,-0.0104 3.34933,0 6.69381,0.25354 10.05438,0.26439 0.985,0.003 2.9921,0.37518 3.80889,-0.27173 1.27977,-1.01359 0.4217,-6.62096 0.42423,-8.19474 0.0126,-7.8439 0,-15.68819 0,-23.54791 0,-20.29332 0.29721,-40.55755 0.26459,-60.85417 -0.0184,-11.46601 -0.88102,-23.20381 0,-34.66041 l -10.58334,-0.26459 z"
         id="path6" /><path
         style="fill:#a165b9;stroke:none"
         d="m 56.45496,154.20055 7.429569,8.73125 17.705846,21.43125 h 0.264584 l 0.529166,-0.79375 c -2.883318,-0.65996 -5.6025,-5.71333 -7.430384,-7.9375 C 68.954479,168.33189 62.76198,161.14796 56.984127,153.67138 H 56.45496 l -0.264583,8.20209 v 16.40416 53.44583 H 32.377878 c -1.84224,0 -3.717958,-0.10138 -5.55625,0.0237 -0.773095,0.0526 -1.847989,0.44183 -2.486185,-0.18434 -1.306638,-1.28203 -0.424231,-6.53864 -0.424231,-8.306 V 199.7089 104.72349 h 22.754165 c 2.723768,0 7.221733,-0.87022 9.744665,0.15965 1.511842,0.61713 2.703687,2.84293 3.697029,4.07368 2.785561,3.45132 5.577986,6.90123 8.406439,10.31773 10.490662,12.67177 21.858015,25.1922 31.333115,38.63019 0.09684,-1.67455 -1.59509,-2.99832 -2.59377,-4.23334 -2.650468,-3.27769 -5.319006,-6.54592 -8.011001,-9.78958 -7.787694,-9.3836 -15.515129,-18.82879 -23.186148,-28.30654 -2.067598,-2.55458 -4.095446,-5.13932 -6.183416,-7.67679 -0.836988,-1.01717 -1.706477,-2.54405 -2.898579,-3.16765 -1.598788,-0.83635 -4.566622,-0.27194 -6.339584,-0.27194 H 30.261212 c -1.326333,0 -6.067435,-0.72669 -6.530472,0.83295 -0.782365,2.63522 -0.08411,6.46997 -0.08411,9.22122 v 20.6375 66.93958 22.48958 c 0,1.50755 -0.784336,6.39344 0.460978,7.40099 1.212611,0.98109 5.158333,0.27193 6.682771,0.27193 h 18.520833 c 1.490049,0 6.468815,0.79238 7.131298,-0.83295 0.678358,-1.66427 0.01245,-4.7525 0.01245,-6.57538 v -15.875 z"
         id="path5" /></g></g></svg>
