<?xml version="1.0" encoding="UTF-8" standalone="no"?>
<!-- Created with Inkscape (http://www.inkscape.org/) -->

<svg
   width="111.75413mm"
   height="37.465603mm"
   viewBox="0 0 111.75413 37.465603"
   version="1.1"
   id="svg1"
   xml:space="preserve"
   inkscape:version="1.4.2 (f4327f4, 2025-05-13)"
   sodipodi:docname="nimbo-logo-wordmark.svg"
   inkscape:export-filename="..\img\nimbo-logo-horizontal-448x112.png"
   inkscape:export-xdpi="167.57823"
   inkscape:export-ydpi="167.57823"
   xmlns:inkscape="http://www.inkscape.org/namespaces/inkscape"
   xmlns:sodipodi="http://sodipodi.sourceforge.net/DTD/sodipodi-0.dtd"
   xmlns="http://www.w3.org/2000/svg"
   xmlns:svg="http://www.w3.org/2000/svg"><sodipodi:namedview
     id="namedview1"
     pagecolor="#ffffff"
     bordercolor="#000000"
     borderopacity="0.25"
     inkscape:showpageshadow="2"
     inkscape:pageopacity="0.0"
     inkscape:pagecheckerboard="0"
     inkscape:deskcolor="#d1d1d1"
     inkscape:document-units="mm"
     inkscape:zoom="0.71891835"
     inkscape:cx="159.26704"
     inkscape:cy="139.79334"
     inkscape:window-width="1920"
     inkscape:window-height="1009"
     inkscape:window-x="-8"
     inkscape:window-y="-8"
     inkscape:window-maximized="1"
     inkscape:current-layer="layer1" /><defs
     id="defs1" /><g
     inkscape:label="Camada 1"
     inkscape:groupmode="layer"
     id="layer1"
     transform="translate(-62.880612,-111.61185)"><g
       id="g2"
       transform="translate(24.289966,-22.817844)"><path
         style="fill:#9e9e9e;fill-opacity:1"
         d="m 64.867077,170.67575 c 0.190996,-0.0764 0.419199,-0.067 0.507118,0.0209 0.08792,0.0879 -0.06835,0.15046 -0.347265,0.13897 -0.308225,-0.0127 -0.37092,-0.0754 -0.159853,-0.15985 z m 12.683463,-1.05283 c 0.181901,-0.0734 0.479557,-0.0734 0.661458,0 0.181901,0.0734 0.03307,0.13346 -0.330729,0.13346 -0.363802,0 -0.51263,-0.0601 -0.330729,-0.13346 z m 3.926226,-0.0511 c -0.07694,-0.1245 0.154153,-0.17015 0.513552,-0.10145 0.359398,0.0687 0.653451,0.17057 0.653451,0.22637 0,0.20472 -1.031515,0.0943 -1.167003,-0.12492 z m 10.019209,-0.10464 c -0.07769,-0.20247 -0.102079,-1.55027 -0.05419,-2.99512 l 0.08707,-2.627 0.05537,2.84427 c 0.05076,2.6074 0.09761,2.84427 0.562493,2.84427 0.278915,0 0.567641,-0.12204 0.641614,-0.2712 0.07397,-0.14916 0.104335,-0.11939 0.06747,0.0661 -0.09401,0.47317 -1.18863,0.58477 -1.35983,0.13863 z m 6.888973,0.064 c -0.101063,-0.16353 -0.112298,-0.36877 -0.02497,-0.45611 0.08733,-0.0873 0.158786,-0.0199 0.158786,0.1499 0,0.16977 0.232909,0.30868 0.517575,0.30868 0.457129,0 0.528993,-0.22403 0.615339,-1.91823 l 0.09776,-1.91823 -0.02003,1.98438 c -0.0184,1.82323 -0.06634,1.99097 -0.590372,2.06565 -0.313691,0.0447 -0.653035,-0.0525 -0.754099,-0.21604 z m 15.148922,0.0918 c 0.1819,-0.0734 0.47956,-0.0734 0.66146,0 0.1819,0.0734 0.0331,0.13346 -0.33073,0.13346 -0.3638,0 -0.51263,-0.0601 -0.33073,-0.13346 z m 4.7625,0 c 0.1819,-0.0734 0.47956,-0.0734 0.66146,0 0.1819,0.0734 0.0331,0.13346 -0.33073,0.13346 -0.3638,0 -0.51263,-0.0601 -0.33073,-0.13346 z m 7.01649,-0.008 c 0.25744,-0.0671 0.61462,-0.0627 0.79375,0.01 0.17914,0.0725 -0.0315,0.12737 -0.46805,0.12197 -0.43656,-0.005 -0.58313,-0.0647 -0.3257,-0.13177 z m 13.09184,0.008 c 0.1819,-0.0734 0.47956,-0.0734 0.66146,0 0.1819,0.0734 0.0331,0.13346 -0.33073,0.13346 -0.3638,0 -0.51263,-0.0601 -0.33073,-0.13346 z m -5.39347,-2.60289 c 6.9e-4,-1.45521 0.0451,-2.01677 0.0987,-1.2479 0.0536,0.76886 0.053,1.95948 -0.001,2.64583 -0.0543,0.68635 -0.0982,0.0573 -0.0975,-1.39793 z m 1.28166,-0.18004 c -0.0529,-2.69973 -0.082,-2.83098 -0.65069,-2.94053 l -0.59531,-0.11466 0.60362,-0.036 c 0.81541,-0.0487 0.88571,0.24606 0.78482,3.29009 l -0.0871,2.627 z m -63.853703,1.96598 c -0.329107,-0.41965 -0.319749,-0.42901 0.09989,-0.0999 0.440729,0.34564 0.580887,0.56292 0.363126,0.56292 -0.05494,0 -0.263301,-0.20836 -0.463021,-0.46302 z m 6.730318,-0.99219 c 0.0015,-0.87313 0.05088,-1.19842 0.109766,-0.72287 0.05889,0.47555 0.05767,1.18993 -0.0027,1.5875 -0.06037,0.39758 -0.108551,0.008 -0.107066,-0.86463 z m 1.325617,-0.13229 c 0,-0.94589 0.04802,-1.33284 0.106712,-0.8599 0.05869,0.47294 0.05869,1.24685 0,1.71979 -0.05869,0.47295 -0.106712,0.086 -0.106712,-0.85989 z m 11.054375,1.13651 c 0.192655,-0.32081 0.407233,-0.52633 0.47684,-0.45672 0.06961,0.0696 -0.08802,0.33208 -0.350281,0.58328 -0.455597,0.43637 -0.461235,0.43073 -0.126559,-0.12656 z m -21.361177,-2.3272 c 6.89e-4,-1.45521 0.04512,-2.01676 0.09874,-1.2479 0.05362,0.76886 0.05305,1.95949 -0.0013,2.64583 -0.0543,0.68635 -0.09817,0.0573 -0.09748,-1.39793 z m 4.616257,2.06822 c 0.190996,-0.0764 0.419199,-0.067 0.507118,0.0209 0.08792,0.0879 -0.06835,0.15045 -0.347266,0.13896 -0.308224,-0.0127 -0.370919,-0.0754 -0.159852,-0.15985 z m 19.943387,-2.77642 c -0.04061,-1.43406 -0.137175,-1.78931 -0.51305,-1.88754 -0.43394,-0.1134 -0.433418,-0.12293 0.0083,-0.15169 0.635563,-0.0414 0.765438,0.40684 0.651331,2.24789 l -0.09656,1.55787 z m -48.745482,1.17137 c 3.918728,-0.0562 5.46881,-0.16728 5.618344,-0.40267 0.144386,-0.22729 0.207727,-0.18579 0.21056,0.13794 0.0037,0.42845 -0.415752,0.45851 -5.618344,0.40267 l -5.622396,-0.0603 z m 61.966398,-1.12463 c 0,-0.3638 0.0601,-0.51263 0.13345,-0.33073 0.0734,0.18191 0.0734,0.47956 0,0.66146 -0.0734,0.1819 -0.13345,0.0331 -0.13345,-0.33073 z m 17.10653,-0.97449 c 0.19099,-0.0764 0.4192,-0.067 0.50712,0.0209 0.0879,0.0879 -0.0684,0.15045 -0.34727,0.13897 -0.30822,-0.0127 -0.37092,-0.0754 -0.15985,-0.15986 z m 21.69583,0 c 0.191,-0.0764 0.4192,-0.067 0.50712,0.0209 0.0879,0.0879 -0.0683,0.15045 -0.34727,0.13897 -0.30822,-0.0127 -0.37092,-0.0754 -0.15985,-0.15986 z m -8.54935,-0.87759 -0.79375,-0.20197 0.71199,-0.0313 c 0.39159,-0.0172 0.78557,0.0878 0.87551,0.23328 0.0899,0.14552 0.12673,0.2505 0.0818,0.23328 -0.045,-0.0172 -0.43895,-0.12219 -0.87551,-0.23328 z m -58.67135,-0.17523 c 0.181901,-0.0734 0.479557,-0.0734 0.661458,0 0.181901,0.0734 0.03307,0.13345 -0.330729,0.13345 -0.363802,0 -0.51263,-0.06 -0.330729,-0.13345 z m 40.74583,0 c 0.1819,-0.0734 0.47956,-0.0734 0.66146,0 0.1819,0.0734 0.0331,0.13345 -0.33073,0.13345 -0.3638,0 -0.51263,-0.06 -0.33073,-0.13345 z m 9.96249,-0.61852 c 0.0205,-0.53138 0.16926,-0.6678 0.75641,-0.69369 0.63662,-0.0281 0.64722,-0.0175 0.0822,0.0822 -0.40842,0.072 -0.6886,0.32897 -0.75641,0.69368 -0.0883,0.47491 -0.1031,0.46011 -0.0822,-0.0822 z m 2.22488,0.61301 c 0.191,-0.0764 0.4192,-0.067 0.50712,0.0209 0.0879,0.0879 -0.0684,0.15045 -0.34727,0.13896 -0.30822,-0.0127 -0.37092,-0.0754 -0.15985,-0.15985 z m -90.239448,-7.68724 c 0.763984,-0.0534 2.014141,-0.0534 2.778125,0 0.763984,0.0534 0.138906,0.0972 -1.389063,0.0972 -1.527968,0 -2.153046,-0.0437 -1.389062,-0.0972 z m 13.738375,0.007 c -0.07132,-0.11463 0.921551,-0.17045 2.206381,-0.12403 2.080459,0.0752 2.348411,0.0317 2.448996,-0.39688 0.09374,-0.39943 0.108521,-0.39128 0.08694,0.0479 -0.0236,0.48024 -0.238031,0.5362 -2.319324,0.60529 -1.261325,0.0419 -2.351672,-0.0177 -2.422992,-0.13229 z m 11.670493,-0.007 c 0.768862,-0.0536 1.959487,-0.053 2.645833,0.001 0.686346,0.0543 0.05728,0.0982 -1.397932,0.0975 -1.455208,-6.9e-4 -2.016763,-0.0451 -1.247901,-0.0987 z m 10.318749,0 c 0.768863,-0.0536 1.959488,-0.053 2.645834,0.001 0.686345,0.0543 0.05728,0.0982 -1.397932,0.0975 -1.455208,-6.9e-4 -2.016764,-0.0451 -1.247902,-0.0987 z m 19.314583,0 c 0.768862,-0.0536 1.959487,-0.053 2.645833,0.001 0.686346,0.0543 0.05728,0.0982 -1.397932,0.0975 -1.455208,-6.9e-4 -2.016764,-0.0451 -1.247901,-0.0987 z m 12.161968,-0.002 c 1.78263,-0.0458 4.69966,-0.0458 6.48229,0 1.78263,0.0458 0.32411,0.0832 -3.24115,0.0832 -3.56526,0 -5.02377,-0.0375 -3.24114,-0.0832 z m -48.770599,-9.72423 c -2.34e-4,-2.91042 0.03842,-4.13714 0.0859,-2.72605 0.04748,1.41108 0.04767,3.79233 4.26e-4,5.29166 -0.04725,1.49933 -0.0861,0.34481 -0.08633,-2.56561 z m 59.970129,3.41753 c 0.0127,-0.30822 0.0754,-0.37092 0.15985,-0.15985 0.0764,0.191 0.067,0.4192 -0.0209,0.50712 -0.0879,0.0879 -0.15045,-0.0684 -0.13896,-0.34727 z m 31.52591,-4.34357 c 0,-0.50933 0.0545,-0.71768 0.121,-0.46302 0.0665,0.25466 0.0665,0.67138 0,0.92604 -0.0666,0.25466 -0.121,0.0463 -0.121,-0.46302 z m -5.56605,-0.13229 c 0.005,-0.43657 0.0647,-0.58313 0.13177,-0.3257 0.0671,0.25743 0.0627,0.61462 -0.01,0.79375 -0.0725,0.17913 -0.12737,-0.0315 -0.12197,-0.46805 z m -12.46611,-0.022 c 0.0127,-0.30823 0.0754,-0.37092 0.15985,-0.15985 0.0764,0.19099 0.067,0.41919 -0.0209,0.50711 -0.0879,0.0879 -0.15045,-0.0683 -0.13896,-0.34726 z m -78.75512,-5.13733 c 0,-2.98318 0.03859,-4.20357 0.08575,-2.71198 0.04716,1.49159 0.04716,3.93237 0,5.42396 -0.04716,1.49159 -0.08575,0.2712 -0.08575,-2.71198 z m 57.63371,3.24511 c 0.69122,-0.0545 1.82232,-0.0545 2.51354,0 0.69123,0.0545 0.12568,0.0991 -1.25677,0.0991 -1.38245,0 -1.94799,-0.0446 -1.25677,-0.0991 z m 31.6501,-2.91438 c -0.3291,-0.41964 -0.31975,-0.429 0.0999,-0.0999 0.44073,0.34564 0.58089,0.56291 0.36312,0.56291 -0.0549,0 -0.2633,-0.20836 -0.46302,-0.46302 z M 58.608463,135.6669 c 0,-0.3638 0.06005,-0.51263 0.133452,-0.33072 0.0734,0.1819 0.0734,0.47955 0,0.66145 -0.0734,0.18191 -0.133452,0.0331 -0.133452,-0.33073 z m 56.384257,-0.9836 c 0.40218,-0.0608 0.99749,-0.0592 1.32291,0.004 0.32543,0.0628 -0.004,0.11256 -0.73124,0.11057 -0.7276,-0.002 -0.99386,-0.0534 -0.59167,-0.11418 z"
         id="path5" /><path
         style="fill:#7a7a7a;fill-opacity:1"
         d="m 64.337911,171.73408 c 0.190996,-0.0764 0.419199,-0.067 0.507118,0.0209 0.08792,0.0879 -0.06835,0.15045 -0.347266,0.13896 -0.308225,-0.0127 -0.370919,-0.0754 -0.159852,-0.15985 z m -4.24987,-2.11116 c 0.181901,-0.0734 0.479557,-0.0734 0.661458,0 0.181901,0.0734 0.03307,0.13346 -0.330729,0.13346 -0.363802,0 -0.51263,-0.0601 -0.330729,-0.13346 z m 12.716536,-0.006 c 0.190996,-0.0764 0.419199,-0.067 0.507118,0.0209 0.08792,0.0879 -0.06835,0.15045 -0.347266,0.13897 -0.308224,-0.0127 -0.370919,-0.0754 -0.159852,-0.15986 z m 14.552082,0 c 0.190996,-0.0764 0.4192,-0.067 0.507118,0.0209 0.08792,0.0879 -0.06835,0.15045 -0.347265,0.13897 -0.308225,-0.0127 -0.370919,-0.0754 -0.159853,-0.15986 z m 20.888631,-0.006 c 0.32912,-0.0633 0.80537,-0.0609 1.05833,0.005 0.25297,0.0662 -0.0163,0.11801 -0.59839,0.11507 -0.58209,-0.003 -0.78906,-0.0571 -0.45994,-0.12041 z M 66.692107,169.0044 c -0.07611,-0.29104 -0.03046,-0.52916 0.101433,-0.52916 0.131897,0 0.239813,0.23812 0.239813,0.52916 0,0.29104 -0.04565,0.52917 -0.101433,0.52917 -0.05579,0 -0.163704,-0.23813 -0.239813,-0.52917 z m 16.040616,-1.32291 c 0,-1.09141 0.0467,-1.53789 0.103787,-0.99219 0.05708,0.5457 0.05708,1.43867 0,1.98437 -0.05708,0.54571 -0.103787,0.0992 -0.103787,-0.99218 z m 30.437097,-0.92604 c 6e-4,-1.60073 0.0442,-2.22146 0.0968,-1.37941 0.0527,0.84206 0.0522,2.15175 -0.001,2.91042 -0.0533,0.75867 -0.0964,0.0697 -0.0958,-1.53101 z m 6.07113,1.19062 c 0,-0.94589 0.048,-1.33284 0.10672,-0.8599 0.0587,0.47295 0.0587,1.24685 0,1.7198 -0.0587,0.47294 -0.10672,0.086 -0.10672,-0.8599 z m 6.8813,-0.13229 c 0.001,-1.01865 0.049,-1.40294 0.10628,-0.854 0.0573,0.54895 0.0563,1.38239 -0.002,1.85209 -0.0584,0.46969 -0.10531,0.0206 -0.10414,-0.99809 z m -33.362931,0.39687 c 0,-0.50932 0.05445,-0.71768 0.121,-0.46302 0.06655,0.25466 0.06655,0.67138 0,0.92604 -0.06655,0.25467 -0.121,0.0463 -0.121,-0.46302 z m 18.548221,0.61679 c 0.0973,-0.0973 -0.0316,-0.42476 -0.28663,-0.72761 -0.46239,-0.54919 -0.46206,-0.54933 0.12547,-0.0522 0.51994,0.43989 0.59826,0.95682 0.14497,0.95682 -0.0884,0 -0.0811,-0.0796 0.0162,-0.17696 z m -2.92801,-0.27097 c 0.25743,-0.0671 0.61462,-0.0627 0.79375,0.01 0.17913,0.0725 -0.0315,0.12736 -0.46805,0.12197 -0.43657,-0.005 -0.58313,-0.0647 -0.3257,-0.13177 z m -53.015794,-0.68954 c 0.116984,-0.11629 1.034333,-0.17462 2.038554,-0.12961 l 1.825855,0.0818 -2.038554,0.1296 c -1.121205,0.0713 -1.942839,0.0345 -1.825855,-0.0818 z m 10.611284,0.24383 c 0,-0.0549 0.208359,-0.2633 0.463021,-0.46302 0.419643,-0.32911 0.429002,-0.31975 0.09989,0.0999 -0.345643,0.44073 -0.562915,0.58089 -0.562915,0.36313 z m 0.814638,-1.64195 c 0.0127,-0.30822 0.07539,-0.37092 0.159852,-0.15985 0.07643,0.191 0.06703,0.4192 -0.02089,0.50712 -0.08792,0.0879 -0.150453,-0.0684 -0.138964,-0.34727 z m 10.373536,-1.30086 c 0.002,-0.72761 0.05337,-0.99386 0.114185,-0.59168 0.06082,0.40218 0.05919,0.9975 -0.0036,1.32292 -0.0628,0.32542 -0.112561,-0.004 -0.110574,-0.73124 z m 8.655575,0.56156 c 0,-0.0549 0.208359,-0.2633 0.463021,-0.46302 0.419643,-0.32911 0.429002,-0.31975 0.09989,0.0999 -0.345643,0.44073 -0.562915,0.58089 -0.562915,0.36313 z m 18.806301,-0.58361 c 0.0127,-0.30823 0.0754,-0.37092 0.15986,-0.15986 0.0764,0.191 0.067,0.4192 -0.0209,0.50712 -0.0879,0.0879 -0.15046,-0.0683 -0.13897,-0.34726 z m -24.676744,-0.29099 c 0.190996,-0.0764 0.4192,-0.067 0.507118,0.0209 0.08792,0.0879 -0.06835,0.15045 -0.347265,0.13897 -0.308225,-0.0127 -0.370919,-0.0754 -0.159853,-0.15986 z m 7.408333,0 c 0.190996,-0.0764 0.4192,-0.067 0.507118,0.0209 0.08792,0.0879 -0.06835,0.15045 -0.347265,0.13897 -0.308225,-0.0127 -0.370919,-0.0754 -0.159853,-0.15986 z m 28.842761,-0.43463 c -0.0984,-0.48282 -0.0616,-0.65679 0.1041,-0.49113 0.1411,0.1411 0.20969,0.47755 0.15244,0.74767 -0.0771,0.36375 -0.14364,0.29722 -0.25654,-0.25654 z m 13.73862,0.44015 c 0.1819,-0.0734 0.47955,-0.0734 0.66146,0 0.1819,0.0734 0.0331,0.13345 -0.33073,0.13345 -0.36381,0 -0.51263,-0.0601 -0.33073,-0.13345 z m -63.564272,-0.35091 c -0.09269,-0.14998 0.01351,-0.19434 0.248968,-0.10399 0.458369,0.1759 0.542234,0.36554 0.161649,0.36554 -0.136933,0 -0.321711,-0.1177 -0.410617,-0.26155 z m 61.005472,-0.15737 c 0.0127,-0.30823 0.0754,-0.37092 0.15985,-0.15986 0.0764,0.191 0.067,0.4192 -0.0209,0.50712 -0.0879,0.0879 -0.15045,-0.0684 -0.13896,-0.34726 z m 3.70416,0 c 0.0127,-0.30823 0.0754,-0.37092 0.15986,-0.15986 0.0764,0.191 0.067,0.4192 -0.0209,0.50712 -0.0879,0.0879 -0.15045,-0.0684 -0.13897,-0.34726 z m -66.480906,-0.55557 c 0.190996,-0.0764 0.419199,-0.067 0.507118,0.0209 0.08792,0.0879 -0.06835,0.15045 -0.347266,0.13896 -0.308224,-0.0127 -0.370919,-0.0754 -0.159852,-0.15985 z m 2.629297,0.006 c 0.181901,-0.0734 0.479557,-0.0734 0.661458,0 0.181901,0.0734 0.03307,0.13345 -0.330729,0.13345 -0.363802,0 -0.51263,-0.06 -0.330729,-0.13345 z m 5.291666,0 c 0.181901,-0.0734 0.479557,-0.0734 0.661458,0 0.181901,0.0734 0.03307,0.13345 -0.330729,0.13345 -0.363802,0 -0.51263,-0.06 -0.330729,-0.13345 z m 7.672916,0 c 0.181901,-0.0734 0.479557,-0.0734 0.661459,0 0.181901,0.0734 0.03307,0.13345 -0.33073,0.13345 -0.363802,0 -0.51263,-0.06 -0.330729,-0.13345 z m 7.016494,-0.008 c 0.257431,-0.0671 0.614618,-0.0627 0.79375,0.01 0.179131,0.0725 -0.03149,0.12736 -0.468057,0.12197 -0.436562,-0.005 -0.583124,-0.0647 -0.325693,-0.13177 z m 9.668792,0.003 c 0.190996,-0.0764 0.419199,-0.067 0.507118,0.0209 0.08792,0.0879 -0.06835,0.15045 -0.347266,0.13896 -0.308224,-0.0127 -0.370919,-0.0754 -0.159852,-0.15985 z m 26.314541,-0.003 c 0.25743,-0.0671 0.61462,-0.0627 0.79375,0.01 0.17913,0.0725 -0.0315,0.12736 -0.46806,0.12197 -0.43656,-0.005 -0.58312,-0.0647 -0.32569,-0.13177 z m 17.58975,0.008 c 0.1819,-0.0734 0.47956,-0.0734 0.66146,0 0.1819,0.0734 0.0331,0.13345 -0.33073,0.13345 -0.3638,0 -0.51263,-0.06 -0.33073,-0.13345 z m 3.8415,-0.008 c 0.25743,-0.0671 0.61462,-0.0627 0.79375,0.01 0.17913,0.0725 -0.0315,0.12736 -0.46806,0.12197 -0.43656,-0.005 -0.58312,-0.0647 -0.32569,-0.13177 z m -36.10413,-0.79114 c 0.191,-0.0764 0.4192,-0.067 0.50712,0.0209 0.0879,0.0879 -0.0683,0.15045 -0.34726,0.13896 -0.30823,-0.0127 -0.37092,-0.0754 -0.15986,-0.15985 z M 56.623192,162.0597 c 0.06745,-0.10914 0.406244,-0.19844 0.75287,-0.19844 0.346626,0 0.685417,0.0893 0.75287,0.19844 0.06745,0.10914 -0.271339,0.19844 -0.75287,0.19844 -0.481531,0 -0.820322,-0.0893 -0.75287,-0.19844 z m 51.756338,-0.11721 c 0.25743,-0.0671 0.61462,-0.0627 0.79375,0.01 0.17913,0.0725 -0.0315,0.12736 -0.46805,0.12197 -0.43657,-0.005 -0.58313,-0.0647 -0.3257,-0.13178 z m 28.45421,-5.55363 c 0.191,-0.0764 0.4192,-0.067 0.50712,0.0209 0.0879,0.0879 -0.0683,0.15046 -0.34727,0.13897 -0.30822,-0.0127 -0.37092,-0.0754 -0.15985,-0.15985 z m 2.91042,0 c 0.19099,-0.0764 0.4192,-0.067 0.50711,0.0209 0.0879,0.0879 -0.0684,0.15046 -0.34726,0.13897 -0.30823,-0.0127 -0.37092,-0.0754 -0.15985,-0.15985 z m -95.63564,-2.59739 c -8.07e-4,-1.30969 0.04393,-1.87882 0.09942,-1.26475 0.05549,0.61407 0.05615,1.68563 0.0015,2.38125 -0.05468,0.69561 -0.100084,0.19319 -0.10089,-1.1165 z m 50.022618,-2.64583 c 2.55e-4,-2.7649 0.03946,-3.86004 0.08713,-2.43365 0.04766,1.42638 0.04746,3.68857 -4.63e-4,5.02708 -0.04792,1.33851 -0.08692,0.17146 -0.08666,-2.59343 z m 10.329032,-5.55625 c 8e-5,-5.82083 0.035,-8.16439 0.0776,-5.2079 0.0426,2.95649 0.0426,7.71899 -1.3e-4,10.58333 -0.0427,2.86435 -0.0776,0.4454 -0.0775,-5.37543 z m -29.654929,6.08542 c 5.97e-4,-1.60073 0.04418,-2.22146 0.09684,-1.37941 0.05267,0.84206 0.05218,2.15175 -0.0011,2.91042 -0.05326,0.75867 -0.09635,0.0697 -0.09576,-1.53101 z m 34.887409,-0.39688 c 0,-0.50932 0.0545,-0.71768 0.121,-0.46302 0.0666,0.25466 0.0666,0.67138 0,0.92604 -0.0665,0.25466 -0.121,0.0463 -0.121,-0.46302 z m 32.74695,-0.62906 c 0,-0.0549 0.20836,-0.2633 0.46302,-0.46302 0.41964,-0.32911 0.429,-0.31975 0.0999,0.0999 -0.34564,0.44073 -0.56291,0.58089 -0.56291,0.36313 z m -32.69765,-2.28136 0.0216,-1.19062 3.175,-0.0122 3.175,-0.0122 -3.09469,0.0864 -3.09468,0.0864 -0.10193,1.11645 -0.10192,1.11645 z m -34.909978,-6.74687 0.0066,-6.87917 2.248958,-0.0154 2.248958,-0.0154 -2.178439,0.0918 -2.178439,0.0918 -0.07711,6.80278 -0.07711,6.80279 z m -21.495567,4.63021 c 0,-0.50933 0.05445,-0.71768 0.121,-0.46302 0.06655,0.25466 0.06655,0.67138 0,0.92604 -0.06655,0.25466 -0.121,0.0463 -0.121,-0.46302 z m 78.805335,-0.15434 c 0.0127,-0.30823 0.0754,-0.37092 0.15985,-0.15985 0.0764,0.19099 0.067,0.41919 -0.0209,0.50711 -0.0879,0.0879 -0.15045,-0.0684 -0.13896,-0.34726 z m -88.106248,-1.5875 c 0.0127,-0.30823 0.07539,-0.37092 0.159853,-0.15985 0.07643,0.19099 0.06703,0.41919 -0.02089,0.50711 -0.08792,0.0879 -0.150453,-0.0684 -0.138965,-0.34726 z m 88.106248,0 c 0.0127,-0.30823 0.0754,-0.37092 0.15985,-0.15985 0.0764,0.19099 0.067,0.41919 -0.0209,0.50711 -0.0879,0.0879 -0.15045,-0.0684 -0.13896,-0.34726 z m -22.41509,-3.54983 c 0,-1.38245 0.0446,-1.94799 0.0991,-1.25677 0.0545,0.69122 0.0545,1.82232 0,2.51354 -0.0545,0.69123 -0.0991,0.12568 -0.0991,-1.25677 z m 7.88389,0 c 0,-0.3638 0.0601,-0.51263 0.13346,-0.33073 0.0734,0.1819 0.0734,0.47956 0,0.66146 -0.0734,0.1819 -0.13346,0.0331 -0.13346,-0.33073 z m 29.43413,-3.24114 -0.50403,-0.59532 0.59531,0.50403 c 0.32742,0.27722 0.59532,0.54511 0.59532,0.59531 0,0.21174 -0.21294,0.0554 -0.6866,-0.50402 z m -107.064961,-3.038 c 0.618463,-0.0557 1.630494,-0.0557 2.248958,0 0.618463,0.0557 0.112448,0.10128 -1.124479,0.10128 -1.236927,0 -1.742943,-0.0456 -1.124479,-0.10128 z m 14.684374,-7.5e-4 c 0.691224,-0.0545 1.822318,-0.0545 2.513541,0 0.691224,0.0545 0.125678,0.0991 -1.25677,0.0991 -1.382448,0 -1.947995,-0.0446 -1.256771,-0.0991 z m 10.715624,-5.9e-4 c 0.763985,-0.0534 2.014141,-0.0534 2.778125,0 0.763985,0.0534 0.138906,0.0972 -1.389062,0.0972 -1.527969,0 -2.153047,-0.0437 -1.389063,-0.0972 z m 30.030207,5.9e-4 c 0.691224,-0.0545 1.822318,-0.0545 2.513542,0 0.691224,0.0545 0.125677,0.0991 -1.256771,0.0991 -1.382448,0 -1.947995,-0.0446 -1.256771,-0.0991 z m 11.655406,-0.003 c 1.42639,-0.0477 3.68858,-0.0475 5.02709,4.6e-4 1.33851,0.0479 0.17146,0.0869 -2.59343,0.0867 -2.7649,-2.6e-4 -3.86004,-0.0395 -2.43366,-0.0871 z"
         id="path4" /><path
         style="fill:#575757;fill-opacity:1"
         d="m 64.043338,171.65265 c -1.239925,-0.23189 -1.747297,-0.6626 -1.303412,-1.10649 0.237375,-0.23737 0.470426,-0.23737 0.991408,0 0.374597,0.17068 0.978551,0.31033 1.34212,0.31033 0.798162,0 1.959899,-1.0907 1.959899,-1.84006 0,-0.63569 -0.20854,-0.66681 -0.910465,-0.1359 -1.263832,0.95591 -3.616554,-0.0537 -3.979877,-1.70795 -0.206163,-0.93866 0.41643,-2.51872 1.146382,-2.90938 0.785305,-0.42028 2.564854,-0.35333 2.95021,0.111 0.4039,0.48666 0.79375,0.51451 0.79375,0.0567 0,-0.1871 0.238125,-0.34018 0.529167,-0.34018 0.496315,0 0.529166,0.17639 0.529166,2.84127 0,1.5627 -0.132213,3.13145 -0.293808,3.48611 -0.487905,1.07084 -1.989629,1.56463 -3.75454,1.23456 z m 2.377292,-3.80112 c 0.172325,-0.16629 0.392088,-0.62377 0.488362,-1.01662 0.136211,-0.55583 0.02535,-0.86399 -0.49973,-1.38907 -0.809866,-0.80986 -1.828505,-0.86801 -2.550909,-0.1456 -1.632957,1.63295 0.900119,4.15517 2.562277,2.55129 z m -12.881026,1.47829 c 0,-0.11206 0.692757,-1.74917 1.53946,-3.63802 1.453999,-3.24362 1.581482,-3.43427 2.296403,-3.43427 0.716829,0 0.836739,0.18227 2.26274,3.43958 1.28775,2.94152 1.44371,3.46397 1.077034,3.60798 -0.492349,0.19337 -0.761386,-0.004 -1.193837,-0.87373 -0.272811,-0.54896 -0.519161,-0.62622 -2.21708,-0.69529 l -1.910167,-0.0777 -0.447114,0.93761 c -0.269465,0.56508 -0.637894,0.93761 -0.927277,0.93761 -0.264089,0 -0.480162,-0.0917 -0.480162,-0.20375 z m 5.291666,-2.55244 c 0,-0.0607 -0.233894,-0.65601 -0.519764,-1.32292 -0.28587,-0.6669 -0.455959,-1.21256 -0.377976,-1.21256 0.07798,0 -0.03681,-0.17859 -0.255087,-0.39687 -0.549148,-0.54915 -0.632504,-0.50937 -0.831548,0.39687 -0.09589,0.43657 -0.264095,0.79375 -0.3738,0.79375 -0.109705,0 -0.210683,0.14883 -0.224396,0.33073 -0.01371,0.1819 -0.106974,0.59862 -0.207248,0.92604 -0.174054,0.56834 -0.114985,0.59532 1.303752,0.59532 0.817337,0 1.486067,-0.0497 1.486067,-0.11036 z m 12.048634,2.16088 c -2.041304,-1.78479 -0.848603,-4.96094 1.862918,-4.96094 1.462648,0 2.449428,0.80719 2.668457,2.18281 l 0.157978,0.99219 H 73.28568 c -1.255968,0 -2.283577,0.11042 -2.283577,0.24538 0,0.39337 1.346759,1.34212 1.905159,1.34212 0.280983,0 0.753959,-0.13009 1.051057,-0.28909 0.798263,-0.42722 1.342098,0.17911 0.631235,0.70378 -0.823899,0.60809 -2.905624,0.48674 -3.70965,-0.21625 z m 3.561782,-2.96156 c 0,-0.50914 -1.027534,-1.20563 -1.778663,-1.20563 -0.610051,0 -1.66092,0.83701 -1.66092,1.32292 0,0.14925 0.749653,0.26458 1.719791,0.26458 1.322285,0 1.719792,-0.0883 1.719792,-0.38187 z m 2.910417,0.93934 c 0,-2.20107 0.0703,-2.6445 0.441867,-2.78708 0.243423,-0.0934 0.535539,-0.018 0.650441,0.16792 0.16611,0.26877 0.275456,0.27059 0.537091,0.009 0.576561,-0.57656 2.439602,-0.40526 3.08698,0.28385 0.492814,0.52457 0.575287,0.91929 0.575287,2.75335 0,1.99554 -0.0352,2.13178 -0.51814,2.00549 -0.443283,-0.11592 -0.529289,-0.40727 -0.595313,-2.01664 -0.07107,-1.73246 -0.133726,-1.91281 -0.792651,-2.2817 -0.660521,-0.36978 -0.772298,-0.35822 -1.455208,0.1505 -0.672654,0.50108 -0.746778,0.7225 -0.817467,2.44196 -0.06882,1.67392 -0.137132,1.89092 -0.595312,1.89092 -0.478834,0 -0.517575,-0.19593 -0.517575,-2.61753 z m 8.495789,2.2483 c -1.711445,-0.94858 -1.738693,-4.0075 -0.04378,-4.91459 0.915907,-0.49018 2.865984,-0.33152 3.480697,0.2832 0.83155,0.83155 0.253526,1.26502 -0.87904,0.6592 -1.080691,-0.57806 -2.203444,-0.23929 -2.591746,0.78202 -0.368401,0.96897 -0.32786,1.3001 0.245935,2.00873 0.373127,0.46081 0.786161,0.62999 1.57487,0.64507 0.588002,0.0112 1.007701,-0.0789 0.932664,-0.2003 -0.226791,-0.36696 0.702989,-0.57572 1.039373,-0.23337 0.241721,0.24601 0.170786,0.43466 -0.31168,0.82888 -0.732383,0.59844 -2.492249,0.6705 -3.447293,0.14116 z m 6.254731,0.18685 c -0.40175,-0.10499 -0.463021,-0.46856 -0.463021,-2.74744 0,-2.45004 0.03554,-2.62643 0.529166,-2.62643 0.495569,0 0.529167,0.17639 0.529167,2.77813 0,1.52796 -0.02977,2.76431 -0.06615,2.74743 -0.03638,-0.0169 -0.274505,-0.0851 -0.529166,-0.15169 z m 2.865445,-0.32339 c -0.645086,-0.71281 -0.45159,-1.91203 0.3757,-2.32847 0.363802,-0.18313 1.227005,-0.33471 1.918229,-0.33686 1.383374,-0.004 1.540172,-0.24967 0.697819,-1.09202 -0.536563,-0.53656 -1.013817,-0.57207 -2.600334,-0.19346 -0.662788,0.15816 -0.62596,-0.75181 0.03762,-0.92956 1.421554,-0.38076 2.866675,-0.18457 3.530568,0.47932 0.581893,0.5819 0.649431,0.87081 0.649431,2.77813 0,1.92145 -0.04937,2.12869 -0.507118,2.12869 -0.278915,0 -0.561688,-0.14883 -0.628385,-0.33073 -0.09701,-0.26458 -0.191382,-0.26458 -0.47184,0 -0.557043,0.52551 -2.468577,0.41404 -3.00169,-0.17504 z m 2.575907,-0.32759 c 1.401513,-0.7377 1.305501,-1.54789 -0.183435,-1.54789 -1.554105,0 -2.139977,0.63361 -1.251275,1.35324 0.725905,0.5878 0.695593,0.58369 1.43471,0.19465 z m 8.992815,0.31584 c -1.23508,-0.75308 -1.72908,-1.66351 -1.72908,-3.18665 0,-1.52314 0.494,-2.43356 1.72908,-3.18664 1.41468,-0.86258 4.39838,-0.57986 4.79525,0.45437 0.22243,0.57963 -0.4426,0.6721 -1.53901,0.21399 -0.8142,-0.34019 -1.17321,-0.36133 -1.92472,-0.1133 -1.00452,0.33152 -1.93859,1.5729 -1.94022,2.57858 -0.002,0.94391 0.72266,2.11983 1.57785,2.56207 0.97251,0.5029 1.52627,0.50354 2.4863,0.003 0.94218,-0.49138 1.05604,-0.49292 0.87143,-0.0118 -0.1029,0.26817 -0.012,0.34103 0.30243,0.24244 0.30888,-0.0969 0.2541,0.0315 -0.17508,0.41035 -0.84756,0.74808 -3.25284,0.76632 -4.45423,0.0338 z m 6.79864,-2.12831 c 0,-1.45521 0.0498,-2.64584 0.11066,-2.64584 0.0609,0 0.29898,-0.0723 0.52916,-0.1606 0.27828,-0.10678 0.41852,-0.0131 0.41852,0.27959 0,0.40203 0.051,0.40449 0.58804,0.0283 0.80006,-0.56039 1.26404,-0.51734 1.26404,0.11729 0,0.34763 -0.17639,0.52916 -0.51416,0.52916 -0.86027,0 -1.33792,1.01285 -1.33792,2.837 0,1.48453 -0.0562,1.66092 -0.52917,1.66092 -0.49389,0 -0.52917,-0.17639 -0.52917,-2.64583 z m 4.7625,0 c 0,-1.45521 0.10933,-2.64584 0.24295,-2.64584 0.13362,0 0.40628,-0.0627 0.60591,-0.13928 0.3786,-0.14528 0.38383,-0.0698 0.26189,3.7773 -0.0463,1.45979 -0.11445,1.65365 -0.58158,1.65365 -0.49389,0 -0.52917,-0.17639 -0.52917,-2.64583 z m 3.48359,2.22354 c -0.45065,-0.31565 -0.58245,-0.63151 -0.52189,-1.25074 0.10104,-1.03328 0.92296,-1.4927 2.6801,-1.49807 1.0621,-0.003 1.26151,-0.08 1.18875,-0.45783 -0.0481,-0.24966 -0.40944,-0.63467 -0.80301,-0.85558 -0.59202,-0.33229 -0.8635,-0.34583 -1.57198,-0.0784 -0.82314,0.3107 -1.26106,0.13936 -1.2765,-0.49945 -0.006,-0.26434 1.07734,-0.48633 2.39345,-0.49027 1.93975,-0.006 2.36499,0.57995 2.36499,3.25768 0,1.99268 -0.046,2.18582 -0.52916,2.22221 -0.29104,0.0219 -0.52917,-0.076 -0.52917,-0.21759 0,-0.1612 -0.19131,-0.15506 -0.51177,0.0164 -0.75887,0.40613 -2.19782,0.33208 -2.88381,-0.1484 z m 2.93256,-0.74267 c 0.78798,-0.85687 0.58254,-1.21629 -0.69521,-1.21629 -1.55776,0 -2.13988,0.63369 -1.24659,1.35703 0.73218,0.59289 1.30536,0.55134 1.9418,-0.14074 z m 4.31448,0.57692 c -0.26659,-0.38061 -0.41188,-1.17391 -0.41188,-2.24896 0,-1.29998 -0.0862,-1.66092 -0.39687,-1.66092 -0.22049,0 -0.39688,-0.23518 -0.39688,-0.52916 0,-0.29398 0.17639,-0.52917 0.39688,-0.52917 0.24227,0 0.39687,-0.24677 0.39687,-0.63347 0,-0.50944 0.12947,-0.626 0.66127,-0.59531 0.48752,0.0281 0.66133,0.18705 0.66146,0.60478 1.3e-4,0.38367 0.21378,0.62024 0.66165,0.73265 0.86995,0.21834 0.89413,0.92078 0.026,0.75482 -0.60354,-0.11537 -0.64073,-0.0437 -0.74005,1.42576 -0.13812,2.04364 0.16579,2.78232 1.0123,2.46047 0.52935,-0.20126 0.6278,-0.15673 0.6278,0.28393 0,0.79561 -1.93086,0.74505 -2.49854,-0.0654 z m 4.40751,-2.12394 c 0.0612,-2.20075 0.15022,-2.71198 0.47228,-2.71198 0.32206,0 0.41109,0.51123 0.47228,2.71198 0.072,2.59043 0.0508,2.71198 -0.47228,2.71198 -0.52313,0 -0.5443,-0.12155 -0.47228,-2.71198 z m 3.56295,-0.0826 -1.21456,-2.79454 0.69971,0.0826 c 0.59744,0.0705 0.81288,0.36292 1.47402,2.00079 0.42587,1.05503 0.86288,1.91823 0.97113,1.91823 0.10825,0 0.5587,-0.8632 1.001,-1.91823 0.61894,-1.47638 0.94075,-1.93883 1.39709,-2.00766 0.67662,-0.10205 0.73113,-0.33328 -0.75099,3.1861 -0.87651,2.08134 -1.05227,2.32604 -1.67118,2.32663 -0.62567,6e-4 -0.80754,-0.26597 -1.90622,-2.79388 z m 6.19442,2.29005 c -1.25988,-1.25988 -0.48795,-2.39011 1.77241,-2.59507 1.75556,-0.15919 2.01435,-0.45065 1.11932,-1.26065 -0.49218,-0.44541 -1.08298,-0.46701 -2.63611,-0.0964 -0.66278,0.15816 -0.62596,-0.75181 0.0376,-0.92956 0.93865,-0.25142 2.83688,-0.19954 3.38246,0.0924 0.70336,0.37643 1.10829,1.84811 1.01674,3.69529 -0.073,1.47349 -0.12726,1.59841 -0.69399,1.59841 -0.402,0 -0.54856,-0.10713 -0.42346,-0.30955 0.13622,-0.2204 0.0455,-0.24554 -0.31512,-0.0873 -0.27853,0.12224 -1.00133,0.27264 -1.60622,0.33422 -0.86068,0.0876 -1.22022,-0.008 -1.65365,-0.44188 z m 3.08418,-0.61862 c 0.1819,-0.14553 0.33073,-0.48815 0.33073,-0.76137 0,-0.41032 -0.20157,-0.49677 -1.15823,-0.49677 -1.56001,0 -2.13983,0.63374 -1.24371,1.35937 0.62346,0.50485 1.35856,0.46892 2.07121,-0.10123 z m -107.354682,-1.9196 c 0,-0.33987 0.779051,-0.39687 5.423958,-0.39687 4.644907,0 5.423958,0.057 5.423958,0.39687 0,0.33987 -0.779051,0.39688 -5.423958,0.39688 -4.644907,0 -5.423958,-0.057 -5.423958,-0.39688 z m 32.279165,-3.79545 c 0,-0.12297 0.26789,-0.44723 0.595312,-0.72058 0.327422,-0.27336 0.455789,-0.33683 0.28526,-0.14106 -0.17053,0.19577 -0.247088,0.52003 -0.170131,0.72058 0.08311,0.21657 -0.03273,0.36464 -0.285259,0.36464 -0.23385,0 -0.425182,-0.10061 -0.425182,-0.22358 z m 2.645833,-0.0566 c 0,-0.15411 -0.108893,-0.2129 -0.241985,-0.13064 -0.133092,0.0822 -0.292324,-2e-5 -0.353848,-0.18283 -0.08581,-0.25498 -0.2297,-0.23996 -0.617911,0.0645 -0.457038,0.35844 -0.47424,0.35608 -0.177614,-0.0243 0.180639,-0.23167 0.250092,-0.49956 0.15434,-0.59532 -0.330375,-0.33037 0.231557,-0.17277 0.997757,0.27983 0.7654,0.45213 1.007098,0.869 0.503844,0.869 -0.14552,0 -0.264583,-0.12609 -0.264583,-0.2802 z m 17.843682,-0.27436 c -0.254437,-0.41169 0.553886,-1.13686 1.053509,-0.94514 0.229565,0.0881 0.417391,0.40203 0.417391,0.69764 0,0.39345 -0.173062,0.53747 -0.645843,0.53747 -0.355214,0 -0.726489,-0.13048 -0.825057,-0.28997 z m 26.430592,-0.12469 c -0.20571,-0.53607 0.24836,-0.984 0.87522,-0.86338 0.29139,0.0561 0.50334,0.33517 0.52115,0.68627 0.0232,0.45626 -0.11508,0.59177 -0.60362,0.59177 -0.3485,0 -0.70524,-0.18659 -0.79275,-0.41466 z m 15.04013,-0.18065 c 0.0619,-0.43606 0.26149,-0.59531 0.74601,-0.59531 0.48452,0 0.68407,0.15925 0.74601,0.59531 0.0723,0.50889 -0.036,0.59531 -0.74601,0.59531 -0.70998,0 -0.81828,-0.0864 -0.74601,-0.59531 z m 3.12726,-5.79235 c -7.27384,-1.20159 -11.32794,-9.06932 -8.08681,-15.69395 0.77904,-1.5923 2.72175,-3.92414 3.08319,-3.70076 0.13262,0.082 0.24112,0.0249 0.24112,-0.12672 0,-0.46494 2.60639,-1.62741 4.59685,-2.05022 3.13621,-0.66621 6.75096,-0.0554 9.33821,1.57781 1.57434,0.99384 3.42481,3.20282 4.10216,4.89691 0.49156,1.22942 0.60435,2.02261 0.60954,4.28668 0.006,2.58215 -0.0532,2.90393 -0.83849,4.56161 -1.59242,3.36164 -4.72953,5.66373 -8.54785,6.27263 -1.96199,0.31288 -2.4752,0.31014 -4.49792,-0.024 z m 5.3276,-4.93477 c 4.44759,-2.31611 4.44067,-9.52479 -0.0114,-11.8746 -1.52717,-0.80604 -4.08301,-0.8504 -5.56075,-0.0965 -1.30672,0.66664 -2.4572,1.82329 -3.0839,3.10044 -0.7124,1.45178 -0.6746,4.31841 0.0787,5.9698 1.51873,3.32931 5.29933,4.60792 8.57733,2.90088 z M 38.987521,145.45649 v -10.58333 h 2.213865 2.213865 l 4.855612,6.08541 c 2.670586,3.34698 4.948565,6.08542 5.062176,6.08542 0.113611,0 0.206565,-2.73027 0.206565,-6.06726 v -6.06726 l 2.502944,-0.0843 2.502944,-0.0843 0.01598,10.64948 0.01598,10.64948 h -2.225458 -2.225459 l -2.060777,-2.57969 c -4.427375,-5.5422 -7.594519,-9.32656 -7.805437,-9.32656 -0.121432,0 -0.15184,0.58213 -0.06757,1.29363 0.08427,0.71149 0.06586,3.3904 -0.04091,5.95312 l -0.194117,4.6595 h -2.485102 -2.485101 z m 25.452916,10.26583 c -0.236034,-0.23603 -0.3175,-2.95157 -0.3175,-10.58333 v -10.26583 h 2.645833 2.645833 v 10.58333 10.58333 H 67.08627 c -1.458148,0 -2.446995,-0.11866 -2.645833,-0.3175 z m 10.46188,-3.45222 c 0.03769,-2.03763 0.06854,-6.78552 0.06854,-10.55087 v -6.84607 h 2.221855 2.221855 l 2.843548,4.82864 c 3.97834,6.75564 4.683579,7.89496 4.809225,7.76932 0.06054,-0.0605 1.698608,-2.89008 3.640161,-6.28787 l 3.530096,-6.1778 2.405171,-0.0761 2.405171,-0.0761 v 10.59326 10.59326 h -2.38125 -2.38125 l -0.02872,-4.69635 c -0.01579,-2.583 -0.105091,-5.38439 -0.198438,-6.22533 l -0.169721,-1.52897 -2.899126,5.16699 -2.899125,5.16699 -1.201916,-0.002 c -1.137238,-0.002 -1.235915,-0.0624 -1.833714,-1.12448 -0.347489,-0.61735 -1.657177,-2.84885 -2.910417,-4.9589 l -2.278618,-3.83646 -0.07115,6.03237 -0.07115,6.03237 -2.444785,-0.0456 -2.444785,-0.0456 z m 30.005043,3.41934 c -0.19741,-0.23786 -0.31402,-3.63645 -0.36313,-10.58343 l -0.0723,-10.23305 6.50042,1e-4 c 6.95809,1e-4 8.25128,0.17874 10.04512,1.38761 1.36242,0.91814 1.97236,2.17135 1.97395,4.05577 10e-4,1.317 -0.13183,1.80806 -0.73701,2.72254 -0.40609,0.61365 -1.03117,1.24915 -1.38906,1.41221 -0.35789,0.16307 -0.65071,0.36688 -0.65071,0.45291 0,0.086 0.55005,0.44822 1.22233,0.80487 2.15111,1.14116 3.16158,3.57313 2.50215,6.02208 -0.54703,2.03152 -1.96237,3.23366 -4.65052,3.94997 -1.88246,0.50162 -13.96601,0.5087 -14.3812,0.008 z m 12.49203,-3.71812 c 1.63417,-0.68279 1.90571,-2.73675 0.53033,-4.01141 -0.83299,-0.77199 -2.09794,-0.97019 -5.52033,-0.86497 l -2.64583,0.0813 -0.0496,2.24896 c -0.0273,1.23692 -0.001,2.39778 0.0578,2.57968 0.15691,0.48301 6.45761,0.45525 7.62759,-0.0336 z m -0.72482,-9.0458 c 0.97423,-0.72737 1.30469,-1.76969 0.88346,-2.78662 -0.52799,-1.27468 -1.42289,-1.56158 -4.87092,-1.56158 h -3.05584 v 2.33715 c 0,1.28544 0.0893,2.42778 0.19844,2.53853 0.10914,0.11076 1.52995,0.15977 3.15737,0.10892 2.48185,-0.0776 3.07641,-0.18017 3.68749,-0.6364 z"
         id="path3" /><path
         style="fill:#333333;fill-opacity:1"
         d="m 60.633744,169.35283 c 0.190996,-0.0764 0.419199,-0.067 0.507118,0.0209 0.08792,0.0879 -0.06835,0.15045 -0.347266,0.13896 -0.308224,-0.0127 -0.370919,-0.0754 -0.159852,-0.15985 z m 21.166666,0 c 0.190996,-0.0764 0.419199,-0.067 0.507118,0.0209 0.08792,0.0879 -0.06835,0.15045 -0.347266,0.13896 -0.308224,-0.0127 -0.370919,-0.0754 -0.159852,-0.15985 z m 10.054166,0 c 0.190996,-0.0764 0.419199,-0.067 0.507118,0.0209 0.08792,0.0879 -0.06835,0.15045 -0.347266,0.13896 -0.308224,-0.0127 -0.370919,-0.0754 -0.159852,-0.15985 z m -2.701262,-4.27308 c -0.07495,-0.12127 0.03185,-0.22049 0.23733,-0.22049 0.205478,0 0.312277,0.0992 0.237329,0.22049 -0.07495,0.12127 -0.181745,0.22049 -0.237329,0.22049 -0.05558,0 -0.162383,-0.0992 -0.23733,-0.22049 z m 29.159596,-1.01859 c 0.19099,-0.0764 0.4192,-0.067 0.50712,0.0209 0.0879,0.0879 -0.0684,0.15045 -0.34727,0.13897 -0.30822,-0.0127 -0.37092,-0.0754 -0.15985,-0.15986 z m -7.62331,-0.71699 c 0,-0.0572 0.18478,-0.17489 0.41062,-0.26155 0.23546,-0.0904 0.34166,-0.046 0.24897,0.10398 -0.15538,0.25141 -0.65959,0.37186 -0.65959,0.15757 z m -38.99957,-0.91152 c -0.08411,-0.1361 0.01375,-0.38579 0.217472,-0.55487 0.219052,-0.18179 0.432899,-0.20629 0.523341,-0.06 0.08411,0.1361 -0.01375,0.38578 -0.217473,0.55486 -0.219052,0.1818 -0.432898,0.2063 -0.52334,0.06 z m 1.790299,0.0143 c 0.0983,-0.15906 -0.03213,-0.41196 -0.289849,-0.562 -0.257722,-0.15004 -0.334336,-0.27642 -0.170253,-0.28084 0.509465,-0.0137 0.970867,0.70591 0.599676,0.93532 -0.195414,0.12077 -0.249302,0.0851 -0.139574,-0.0925 z m -9.357392,-6.68734 c 0,-0.15411 0.119062,-0.20661 0.264583,-0.11667 0.145521,0.0899 0.264583,0.21602 0.264583,0.28019 0,0.0642 -0.119062,0.11668 -0.264583,0.11668 -0.145521,0 -0.264583,-0.12609 -0.264583,-0.2802 z m 40.481243,0 c 0,-0.15411 0.11907,-0.20661 0.26459,-0.11667 0.14552,0.0899 0.26458,0.21602 0.26458,0.28019 0,0.0642 -0.11906,0.11668 -0.26458,0.11668 -0.14552,0 -0.26459,-0.12609 -0.26459,-0.2802 z"
         id="path2" /></g></g></svg>
