<?xml version="1.0" encoding="UTF-8" standalone="no"?>
<!-- Created with Inkscape (http://www.inkscape.org/) -->

<svg
   width="190.20627mm"
   height="16.975952mm"
   viewBox="0 0 190.20627 16.975952"
   version="1.1"
   id="svg1"
   xml:space="preserve"
   inkscape:version="1.4.2 (f4327f4, 2025-05-13)"
   sodipodi:docname="nimbo-logo-horizontal-branco.svg"
   inkscape:export-filename="..\img\nimbo-logo-wordmark-448x112.png"
   inkscape:export-xdpi="75.930984"
   inkscape:export-ydpi="75.930984"
   xmlns:inkscape="http://www.inkscape.org/namespaces/inkscape"
   xmlns:sodipodi="http://sodipodi.sourceforge.net/DTD/sodipodi-0.dtd"
   xmlns="http://www.w3.org/2000/svg"
   xmlns:svg="http://www.w3.org/2000/svg"><sodipodi:namedview
     id="namedview1"
     pagecolor="#ffffff"
     bordercolor="#000000"
     borderopacity="0.25"
     inkscape:showpageshadow="2"
     inkscape:pageopacity="0.0"
     inkscape:pagecheckerboard="0"
     inkscape:deskcolor="#d1d1d1"
     inkscape:document-units="mm"
     inkscape:zoom="0.71891835"
     inkscape:cx="340.09425"
     inkscape:cy="85.54518"
     inkscape:window-width="1920"
     inkscape:window-height="1009"
     inkscape:window-x="-8"
     inkscape:window-y="-8"
     inkscape:window-maximized="1"
     inkscape:current-layer="layer1" /><defs
     id="defs1" /><g
     inkscape:label="Camada 1"
     inkscape:groupmode="layer"
     id="layer1"
     transform="translate(-15.199702,-125.87213)"><path
       style="fill:#ffffff;fill-opacity:1"
       d="m 89.679907,142.70055 c -2.433923,-0.63504 -4.459313,-2.25025 -5.564421,-4.43752 -0.693942,-1.37347 -0.782852,-1.81912 -0.784134,-3.93037 -0.0013,-2.20962 0.06365,-2.50131 0.901737,-4.04695 0.984053,-1.81484 2.188504,-2.91948 4.169012,-3.82351 1.027042,-0.46882 1.772169,-0.58455 3.796911,-0.58974 2.320692,-0.006 2.658458,0.0621 4.288373,0.86454 3.05716,1.50504 4.701895,4.16202 4.701895,7.59566 0,3.41727 -1.646849,6.09166 -4.666572,7.57827 -1.454266,0.71593 -2.081952,0.86516 -3.891499,0.92517 -1.186654,0.0394 -2.51474,-0.0216 -2.951302,-0.13555 z m 4.282254,-3.48993 c 2.306071,-0.87129 3.532594,-3.41911 2.957714,-6.14395 -0.398875,-1.89061 -2.03343,-3.50995 -3.812167,-3.77669 -2.22501,-0.33366 -4.537482,0.8438 -5.315861,2.70672 -0.430259,1.02976 -0.473162,3.45959 -0.07948,4.50155 0.371826,0.98412 1.510683,2.17866 2.496709,2.61878 0.96532,0.43087 2.743053,0.47521 3.753088,0.0936 z m -78.762459,-4.87796 v -8.33437 h 1.656798 1.656798 l 3.080155,3.77031 c 1.694084,2.07367 3.503413,4.24656 4.020729,4.82864 l 0.940575,1.05834 0.01101,-4.82865 0.01101,-4.82864 h 1.984375 1.984375 l 0.0019,6.54843 c 0.001,3.60164 0.07778,7.35211 0.170551,8.33438 l 0.168671,1.78594 h -1.860541 -1.860541 l -1.540209,-1.91823 c -0.847114,-1.05503 -2.646463,-3.19779 -3.998552,-4.7617 l -2.458343,-2.84347 v 4.7617 4.7617 h -1.984386 -1.984375 z m 19.579166,0 v -8.33437 h 1.984375 1.984375 v 8.33437 8.33438 h -1.984375 -1.984375 z m 8.202083,0 v -8.33437 l 1.653645,0.004 1.653646,0.004 2.877811,4.89618 c 1.582796,2.6929 2.966777,4.95116 3.075514,5.01836 0.108736,0.0672 1.479138,-2.13775 3.045338,-4.8999 l 2.847635,-5.02209 h 1.683622 1.683621 l 0.05597,6.87916 c 0.03078,3.78354 0.06055,7.50425 0.06615,8.26823 l 0.01018,1.38906 -1.912216,0.0776 -1.912216,0.0776 -0.07216,-4.74962 -0.07216,-4.74961 -2.218115,3.8121 -2.218115,3.8121 h -0.979585 c -0.974288,0 -0.991619,-0.0197 -3.205843,-3.63802 l -2.226258,-3.63802 -0.07239,4.56406 -0.07239,4.56407 H 44.8268 42.980965 Z m 22.754165,-0.001 v -8.3795 l 5.490104,0.10046 c 4.569546,0.0836 5.679482,0.18136 6.619536,0.58299 1.341116,0.57299 2.072046,1.42683 2.462391,2.87646 0.347617,1.29095 -0.218388,3.06695 -1.23137,3.86376 -0.716744,0.56379 -0.809752,0.82466 -0.294015,0.82466 0.604387,0 2.019644,1.60847 2.331702,2.65003 0.611315,2.04038 -0.314864,4.05488 -2.317361,5.0404 -1.218999,0.59993 -1.598207,0.63835 -7.174008,0.72683 l -5.886979,0.0934 z m 10.847916,4.63133 c 0.293982,-0.29398 0.529167,-0.88195 0.529167,-1.32292 0,-1.64851 -1.477917,-2.22581 -5.291667,-2.067 l -1.984374,0.0826 -0.07774,1.91823 -0.07774,1.91823 h 3.186596 c 2.833814,0 3.245174,-0.0586 3.715758,-0.52917 z m -0.891308,-6.97394 c 0.76826,-0.89315 0.780567,-1.22591 0.07836,-2.11862 -0.529776,-0.6735 -0.641923,-0.69714 -3.307292,-0.69714 h -2.758921 v 1.67569 c 0,0.92163 0.0893,1.76698 0.198437,1.87854 0.109141,0.11157 1.315396,0.15499 2.680567,0.0965 2.318216,-0.0993 2.523517,-0.15447 3.108854,-0.83497 z m 53.543386,8.19684 c 0,-0.0549 0.20836,-0.2633 0.46302,-0.46302 0.41964,-0.32911 0.429,-0.31975 0.0999,0.0999 -0.34564,0.44073 -0.56291,0.58089 -0.56291,0.36313 z m -1.12448,-1.39825 c 0.1819,-0.0734 0.47956,-0.0734 0.66146,0 0.1819,0.0734 0.0331,0.13345 -0.33073,0.13345 -0.3638,0 -0.51263,-0.06 -0.33073,-0.13345 z m 1.82255,-0.22165 c -0.0838,-0.21828 -0.037,-0.39687 0.10398,-0.39687 0.14096,0 0.25628,0.17859 0.25628,0.39687 0,0.21828 -0.0468,0.39688 -0.10398,0.39688 -0.0572,0 -0.17252,-0.1786 -0.25628,-0.39688 z m 5.45853,0.21352 c 0.25743,-0.0671 0.61461,-0.0627 0.79375,0.01 0.17913,0.0725 -0.0315,0.12736 -0.46806,0.12197 -0.43656,-0.005 -0.58312,-0.0647 -0.32569,-0.13178 z m 13.09184,0.008 c 0.1819,-0.0734 0.47955,-0.0734 0.66145,0 0.1819,0.0734 0.0331,0.13345 -0.33073,0.13345 -0.3638,0 -0.51263,-0.06 -0.33072,-0.13345 z m 8.73124,0 c 0.18191,-0.0734 0.47956,-0.0734 0.66146,0 0.1819,0.0734 0.0331,0.13345 -0.33073,0.13345 -0.3638,0 -0.51263,-0.06 -0.33073,-0.13345 z m 11.11559,-0.0119 c 0.32912,-0.0633 0.80537,-0.0609 1.05833,0.005 0.25297,0.0662 -0.0163,0.118 -0.59839,0.11507 -0.58209,-0.003 -0.78906,-0.0571 -0.45994,-0.12041 z m 13.89257,0.004 c 0.25743,-0.0671 0.61462,-0.0627 0.79375,0.01 0.17914,0.0725 -0.0315,0.12736 -0.46805,0.12197 -0.43656,-0.005 -0.58313,-0.0647 -0.3257,-0.13178 z m 6.75838,0.003 c 0.191,-0.0764 0.4192,-0.067 0.50712,0.0209 0.0879,0.0879 -0.0684,0.15045 -0.34727,0.13896 -0.30822,-0.0127 -0.37092,-0.0754 -0.15985,-0.15985 z m 12.94805,0.006 c 0.1819,-0.0734 0.47955,-0.0734 0.66145,0 0.18191,0.0734 0.0331,0.13345 -0.33073,0.13345 -0.3638,0 -0.51263,-0.06 -0.33072,-0.13345 z m -58.57744,-2.33831 c -8.1e-4,-1.30969 0.0439,-1.87883 0.0994,-1.26476 0.0555,0.61408 0.0562,1.68564 0.001,2.38125 -0.0547,0.69562 -0.10008,0.19319 -0.10089,-1.11649 z m 10.59043,-0.79375 c 5.2e-4,-1.74625 0.0433,-2.4262 0.0952,-1.51099 0.0518,0.91521 0.0514,2.34396 -9.5e-4,3.175 -0.0523,0.83104 -0.0947,0.0822 -0.0942,-1.66401 z m 23.83061,-0.0657 c 0.0129,-3.03981 0.0266,-3.1101 0.61254,-3.14452 0.48215,-0.0283 0.49669,-0.012 0.0744,0.0835 -0.47951,0.10839 -0.53256,0.38072 -0.61254,3.14452 l -0.0875,3.02584 z m 6.16032,2.81098 c 0.17948,-0.18082 0.39297,-0.26211 0.47443,-0.18065 0.0815,0.0815 -0.0654,0.2294 -0.32632,0.32876 -0.37708,0.14359 -0.40747,0.1132 -0.14811,-0.14811 z m 7.58085,-2.87758 c 0,-1.81901 0.0423,-2.56316 0.0939,-1.65365 0.0517,0.9095 0.0517,2.39779 0,3.30729 -0.0517,0.90951 -0.0939,0.16537 -0.0939,-1.65364 z m -64.95862,2.44739 c -0.32911,-0.41964 -0.31975,-0.429 0.0999,-0.0999 0.25466,0.19972 0.46302,0.40808 0.46302,0.46302 0,0.21776 -0.21727,0.0776 -0.56291,-0.36313 z m 20.10833,0 c -0.32911,-0.41964 -0.31975,-0.429 0.0999,-0.0999 0.25467,0.19972 0.46302,0.40808 0.46302,0.46302 0,0.21776 -0.21727,0.0776 -0.56291,-0.36313 z m 3.73791,0.36313 c 0,-0.0549 0.20836,-0.2633 0.46303,-0.46302 0.41964,-0.32911 0.429,-0.31975 0.0999,0.0999 -0.34564,0.44073 -0.56292,0.58089 -0.56292,0.36313 z m 10.14487,-2.14907 c 9.6e-4,-1.16416 0.0475,-1.6075 0.10337,-0.98519 0.0559,0.62231 0.0551,1.57481 -0.002,2.11667 -0.0568,0.54185 -0.10258,0.0327 -0.10162,-1.13148 z m 28.34113,1.43761 c -0.0959,-0.1552 -0.11766,-0.33893 -0.0483,-0.40829 0.0694,-0.0693 0.1966,0.0576 0.28277,0.28219 0.17891,0.46622 0.0264,0.54823 -0.23447,0.1261 z m 16.37345,-1.70219 c 9.6e-4,-1.16417 0.0475,-1.6075 0.10337,-0.98519 0.0559,0.62231 0.0551,1.57481 -0.002,2.11666 -0.0569,0.54186 -0.10259,0.0327 -0.10163,-1.13147 z m -38.22445,1.25677 c -0.3291,-0.41964 -0.31974,-0.429 0.0999,-0.0999 0.25466,0.19972 0.46302,0.40808 0.46302,0.46302 0,0.21776 -0.21727,0.0776 -0.56292,-0.36313 z m -11.58702,-0.22048 c 0.0127,-0.30823 0.0754,-0.37092 0.15985,-0.15986 0.0764,0.191 0.067,0.4192 -0.0209,0.50712 -0.0879,0.0879 -0.15045,-0.0684 -0.13896,-0.34726 z m -25.37086,-1.3141 c -0.0275,-0.8804 -0.16867,-1.74403 -0.31367,-1.91918 -0.145,-0.17514 -0.079,-0.15843 0.14676,0.0371 0.30811,0.26697 0.38628,0.74525 0.31366,1.91917 l -0.0967,1.56359 z m 54.18955,0.82538 c 0,-0.45651 -0.1727,-0.67632 -0.59531,-0.75772 -0.51042,-0.0983 -0.49156,-0.1198 0.13229,-0.15069 0.64007,-0.0317 0.7276,0.0595 0.7276,0.75772 0,0.43656 -0.0595,0.79375 -0.13229,0.79375 -0.0728,0 -0.13229,-0.28938 -0.13229,-0.64306 z m -38.29252,-0.94444 c 0,-0.65485 0.0516,-0.92274 0.11466,-0.59532 0.0631,0.32742 0.0631,0.86321 0,1.19063 -0.0631,0.32742 -0.11466,0.0595 -0.11466,-0.59531 z m 35.64669,0.95843 c 0,-0.0549 0.20836,-0.2633 0.46302,-0.46302 0.41964,-0.3291 0.429,-0.31975 0.0999,0.0999 -0.34564,0.44073 -0.56291,0.58089 -0.56291,0.36312 z m -48.88653,-0.95843 c 0,-0.50933 0.0545,-0.71769 0.121,-0.46303 0.0665,0.25467 0.0665,0.67138 0,0.92605 -0.0666,0.25466 -0.121,0.0463 -0.121,-0.46302 z m 38.23705,0.61852 c 0.1819,-0.0734 0.47955,-0.0734 0.66146,0 0.1819,0.0734 0.0331,0.13345 -0.33073,0.13345 -0.36381,0 -0.51263,-0.0601 -0.33073,-0.13345 z m -44.09838,-0.50828 c 0.0127,-0.30823 0.0754,-0.37092 0.15985,-0.15985 0.0764,0.19099 0.067,0.4192 -0.0209,0.50711 -0.0879,0.0879 -0.15045,-0.0683 -0.13896,-0.34726 z m 8.11505,0.22519 c 0.61846,-0.0557 1.63049,-0.0557 2.24895,0 0.61847,0.0557 0.11245,0.10128 -1.12447,0.10128 -1.23693,0 -1.74295,-0.0456 -1.12448,-0.10128 z m 30.31063,-1.26148 c 0.001,-0.87312 0.0509,-1.19841 0.10976,-0.72286 0.0589,0.47555 0.0577,1.18992 -0.003,1.5875 -0.0604,0.39757 -0.10855,0.008 -0.10706,-0.86464 z m -58.51312,0.66146 c 0,-0.3638 0.06,-0.51263 0.13345,-0.33073 0.0734,0.1819 0.0734,0.47956 0,0.66146 -0.0734,0.1819 -0.13345,0.0331 -0.13345,-0.33073 z m 3.71063,0.3316 c 2.90913,-0.0716 3.37143,-0.14312 3.47503,-0.53781 0.0875,-0.33315 0.12774,-0.29559 0.1502,0.14007 0.0305,0.59167 0.009,0.59496 -3.47504,0.53781 l -3.50572,-0.0575 z m 48.05631,0.0168 c 0.19099,-0.0764 0.4192,-0.067 0.50712,0.0209 0.0879,0.0879 -0.0683,0.15045 -0.34727,0.13896 -0.30822,-0.0127 -0.37092,-0.0754 -0.15985,-0.15985 z m 44.97916,0 c 0.191,-0.0764 0.4192,-0.067 0.50712,0.0209 0.0879,0.0879 -0.0684,0.15045 -0.34727,0.13896 -0.30822,-0.0127 -0.37091,-0.0754 -0.15985,-0.15985 z m -77.717,-0.76735 c 0.0127,-0.30823 0.0754,-0.37092 0.15986,-0.15985 0.0764,0.19099 0.067,0.4192 -0.0209,0.50711 -0.0879,0.0879 -0.15045,-0.0684 -0.13897,-0.34726 z m 11.1125,0 c 0.0127,-0.30823 0.0754,-0.37092 0.15986,-0.15985 0.0764,0.19099 0.067,0.4192 -0.0209,0.50711 -0.0879,0.0879 -0.15046,-0.0684 -0.13897,-0.34726 z m 47.38131,-0.37483 c 0,-0.3638 0.06,-0.51263 0.13345,-0.33073 0.0734,0.1819 0.0734,0.47956 0,0.66146 -0.0734,0.1819 -0.13345,0.0331 -0.13345,-0.33073 z m 18.94207,0.35394 c 0.1819,-0.0734 0.47956,-0.0734 0.66146,0 0.1819,0.0734 0.0331,0.13345 -0.33073,0.13345 -0.3638,0 -0.51263,-0.06 -0.33073,-0.13345 z m -52.58593,-0.28221 c 0.21828,-0.0831 0.48435,-0.28205 0.59126,-0.44213 0.1199,-0.17953 0.19594,-0.11363 0.19844,0.17196 0.003,0.31108 -0.19131,0.45617 -0.59126,0.44214 -0.39779,-0.014 -0.46363,-0.071 -0.19844,-0.17197 z m 5.82083,-0.43621 c 0,-0.0549 0.20836,-0.2633 0.46302,-0.46302 0.41965,-0.3291 0.429,-0.31975 0.0999,0.0999 -0.34565,0.44073 -0.56292,0.58089 -0.56292,0.36312 z m -17.09115,-0.95843 c 0.0197,-0.50986 0.17712,-0.6714 0.68698,-0.7048 0.5514,-0.0361 0.56507,-0.0224 0.0822,0.0824 -0.33058,0.0718 -0.62554,0.37439 -0.68699,0.7048 -0.0882,0.47417 -0.10305,0.45924 -0.0821,-0.0825 z m 49.37032,0.44097 c 0,-0.24513 0.20563,-0.43917 0.46302,-0.43692 0.26423,0.002 0.34943,0.0888 0.19843,0.20151 -0.14552,0.10861 -0.35388,0.30522 -0.46302,0.43692 -0.10914,0.1317 -0.19843,0.041 -0.19843,-0.20151 z m 14.69995,-0.0525 c -0.28248,-0.21366 -0.38635,-0.38846 -0.23084,-0.38846 0.15552,0 0.43098,0.17859 0.61213,0.39687 0.41202,0.49644 0.2824,0.49358 -0.38129,-0.008 z m -69.86558,-0.38846 c 0.26339,-0.29105 0.53842,-0.52917 0.61118,-0.52917 0.0728,0 -0.0832,0.23812 -0.34659,0.52917 -0.26339,0.29104 -0.53842,0.52916 -0.61118,0.52916 -0.0728,0 0.0832,-0.23812 0.34659,-0.52916 z m -7.27604,0.16468 c 0,-0.0549 0.20836,-0.2633 0.46302,-0.46302 0.41965,-0.3291 0.42901,-0.31975 0.0999,0.0999 -0.34565,0.44073 -0.56292,0.58089 -0.56292,0.36312 z m 2.05052,-0.0753 c 0.1819,-0.0734 0.47956,-0.0734 0.66146,0 0.1819,0.0734 0.0331,0.13345 -0.33073,0.13345 -0.3638,0 -0.51263,-0.06 -0.33073,-0.13345 z m 6.87917,0 c 0.1819,-0.0734 0.47956,-0.0734 0.66146,0 0.1819,0.0734 0.0331,0.13345 -0.33073,0.13345 -0.3638,0 -0.51263,-0.06 -0.33073,-0.13345 z m 13.22917,0 c 0.1819,-0.0734 0.47955,-0.0734 0.66145,0 0.1819,0.0734 0.0331,0.13345 -0.33073,0.13345 -0.3638,0 -0.51263,-0.06 -0.33072,-0.13345 z m 7.47447,0.0753 c 0,-0.0549 0.20836,-0.2633 0.46302,-0.46302 0.41965,-0.3291 0.42901,-0.31975 0.0999,0.0999 -0.34564,0.44073 -0.56292,0.58089 -0.56292,0.36312 z m 1.78594,-0.0753 c 0.1819,-0.0734 0.47956,-0.0734 0.66146,0 0.1819,0.0734 0.0331,0.13345 -0.33073,0.13345 -0.3638,0 -0.51263,-0.06 -0.33073,-0.13345 z m 25.00816,-0.008 c 0.25743,-0.0671 0.61462,-0.0627 0.79375,0.01 0.17913,0.0725 -0.0315,0.12736 -0.46806,0.12197 -0.43656,-0.005 -0.58312,-0.0647 -0.32569,-0.13177 z m 3.7425,-0.34582 c 0.016,-0.22594 0.3119,-0.41554 0.68694,-0.44021 0.55211,-0.0363 0.56502,-0.023 0.0797,0.0824 -0.31848,0.0692 -0.6276,0.26727 -0.68694,0.44022 -0.0593,0.17295 -0.0952,0.13586 -0.0797,-0.0824 z m 0.63463,0.34843 c 0.19099,-0.0764 0.4192,-0.067 0.50711,0.0209 0.0879,0.0879 -0.0684,0.15045 -0.34726,0.13896 -0.30823,-0.0127 -0.37092,-0.0754 -0.15985,-0.15985 z m -16.48498,-0.3454 c -0.0927,-0.14998 0.0135,-0.19434 0.24897,-0.10398 0.45837,0.17589 0.54223,0.36554 0.16165,0.36554 -0.13693,0 -0.32171,-0.1177 -0.41062,-0.26156 z m 23.14917,-0.3043 c 0,-0.12534 0.29765,-0.22789 0.66146,-0.22789 0.3638,0 0.66146,0.0456 0.66146,0.10144 0,0.0558 -0.29766,0.15835 -0.66146,0.2279 -0.36381,0.0695 -0.66146,0.0239 -0.66146,-0.10145 z m 4.44975,-0.021 c 0.1411,-0.1411 0.47755,-0.20969 0.74767,-0.15244 0.36375,0.0771 0.29722,0.14364 -0.25655,0.25654 -0.48281,0.0984 -0.65679,0.0616 -0.49112,-0.1041 z m -77.21016,-0.1913 c 0,-0.13693 0.11769,-0.32171 0.26155,-0.41062 0.14998,-0.0927 0.19434,0.0135 0.10398,0.24897 -0.17589,0.45837 -0.36553,0.54224 -0.36553,0.16165 z m 9.45885,0.0737 c 0.1819,-0.0734 0.47956,-0.0734 0.66146,0 0.1819,0.0734 0.0331,0.13345 -0.33073,0.13345 -0.3638,0 -0.51263,-0.0601 -0.33073,-0.13345 z m 22.50612,-0.006 c 0.19099,-0.0764 0.4192,-0.067 0.50712,0.0209 0.0879,0.0879 -0.0683,0.15045 -0.34727,0.13896 -0.30822,-0.0127 -0.37092,-0.0754 -0.15985,-0.15985 z m 20.6375,0 c 0.19099,-0.0764 0.4192,-0.067 0.50712,0.0209 0.0879,0.0879 -0.0684,0.15045 -0.34727,0.13896 -0.30823,-0.0127 -0.37092,-0.0754 -0.15985,-0.15985 z m 15.23247,-0.20068 c -0.0805,-0.20978 -0.0906,-0.59673 -0.0224,-0.8599 0.0832,-0.32097 0.13408,-0.24502 0.15467,0.23073 0.0222,0.5124 0.19589,0.74102 0.626,0.82386 l 0.59531,0.11467 -0.60361,0.036 c -0.33199,0.0198 -0.66948,-0.13561 -0.74998,-0.34539 z m -18.92078,-0.61077 c -0.32911,-0.41964 -0.31975,-0.429 0.0999,-0.0999 0.44072,0.34564 0.58088,0.56291 0.36312,0.56291 -0.0549,0 -0.2633,-0.20836 -0.46302,-0.46302 z m -33.86666,-0.52917 c -0.32911,-0.41964 -0.31975,-0.429 0.0999,-0.0999 0.44073,0.34564 0.58089,0.56292 0.36313,0.56292 -0.0549,0 -0.2633,-0.20836 -0.46302,-0.46303 z m 55.86083,0.35904 c 0,-0.0572 0.18477,-0.17489 0.41061,-0.26155 0.23546,-0.0904 0.34166,-0.046 0.24897,0.10398 -0.15538,0.25141 -0.65958,0.37186 -0.65958,0.15757 z m -23.47674,-0.34395 c 0.25743,-0.0671 0.61462,-0.0627 0.79375,0.01 0.17913,0.0725 -0.0315,0.12736 -0.46805,0.12197 -0.43657,-0.005 -0.58313,-0.0647 -0.3257,-0.13177 z m -31.85493,-0.54425 c -0.3291,-0.41965 -0.31975,-0.429 0.0999,-0.0999 0.25466,0.19972 0.46302,0.40808 0.46302,0.46302 0,0.21777 -0.21727,0.0776 -0.56292,-0.36312 z m 51.31331,0.28228 c 0.19099,-0.0764 0.4192,-0.067 0.50711,0.0209 0.0879,0.0879 -0.0684,0.15045 -0.34726,0.13896 -0.30823,-0.0127 -0.37092,-0.0754 -0.15985,-0.15985 z m -10.09597,-0.67916 c 0.0675,-0.10914 0.28718,-0.19843 0.48828,-0.19843 0.20111,0 0.42084,0.0893 0.48829,0.19843 0.0675,0.10914 -0.15228,0.19844 -0.48829,0.19844 -0.33601,0 -0.55573,-0.0893 -0.48828,-0.19844 z m 14.37891,0.0661 c -0.23847,-0.15411 -0.2711,-0.2581 -0.0818,-0.26053 0.17331,-0.002 0.3887,0.11501 0.47863,0.26053 0.20302,0.32849 0.11143,0.32849 -0.39687,0 z m -23.87865,-0.17523 c 0.18191,-0.0734 0.47956,-0.0734 0.66146,0 0.1819,0.0734 0.0331,0.13345 -0.33073,0.13345 -0.3638,0 -0.51263,-0.06 -0.33073,-0.13345 z"
       id="path2-7" /><path
       style="fill:#494445"
       d="m 127.4622,141.05148 c -0.98733,-0.28553 -1.31814,-0.6909 -0.90279,-1.10625 0.21621,-0.2162 0.37881,-0.21008 0.61195,0.0231 0.41836,0.41836 2.18834,0.4081 2.53925,-0.0147 0.42562,-0.51285 0.68398,-1.78446 0.36255,-1.78446 -0.15271,0 -0.35124,0.11906 -0.44118,0.26458 -0.3268,0.52877 -2.12753,0.29565 -2.73832,-0.35451 -1.29227,-1.37555 -1.24499,-3.98154 0.0932,-5.13559 0.80957,-0.69818 1.45218,-0.74694 2.526,-0.19164 0.44745,0.23138 0.78061,0.28784 0.78061,0.13229 0,-0.14926 0.23813,-0.27138 0.52917,-0.27138 0.50105,0 0.52917,0.17639 0.52917,3.32043 0,3.94101 -0.26791,4.71074 -1.78637,5.13244 -0.54547,0.15149 -1.05129,0.26535 -1.12405,0.25304 -0.0728,-0.0123 -0.51338,-0.1326 -0.97916,-0.2673 z m 2.34739,-3.58483 c 0.3632,-0.32869 0.48385,-0.82198 0.48385,-1.97827 0,-1.34992 -0.0816,-1.59383 -0.65953,-1.97254 -1.39308,-0.91278 -2.60366,0.11073 -2.60366,2.20133 0,1.88263 1.55243,2.85982 2.77934,1.74948 z m -10.60003,-2.78898 c 0.85623,-2.21134 1.66831,-4.13215 1.80463,-4.26846 0.56853,-0.56854 1.06486,0.23975 2.42296,3.94584 0.78778,2.14976 1.47536,4.01646 1.52795,4.14821 0.0526,0.13176 -0.17552,0.19977 -0.50692,0.15114 -0.41749,-0.0613 -0.69759,-0.3728 -0.91208,-1.01445 l -0.30955,-0.92604 -1.88151,-0.0774 -1.8815,-0.0775 -0.32047,1.06964 c -0.24991,0.83415 -0.45035,1.06965 -0.91038,1.06965 -0.56774,0 -0.5314,-0.15111 0.96687,-4.02062 z m 2.97982,-0.94032 c -0.76263,-2.02674 -0.83013,-2.13567 -1.00725,-1.62537 -0.0704,0.20273 -0.37077,1.02344 -0.66756,1.82381 -0.29678,0.80036 -0.53967,1.48497 -0.53974,1.52135 -8e-5,0.0364 0.64937,0.0662 1.44321,0.0662 h 1.44336 z m 11.52329,4.18754 c -0.67316,-0.67316 -0.77339,-0.96807 -0.77339,-2.27542 0,-1.3554 0.0878,-1.58983 0.89958,-2.4016 0.999,-0.999 1.84256,-1.13701 3.06998,-0.50229 0.51916,0.26847 0.85761,0.71891 1.04372,1.38907 0.46236,1.66485 0.47529,1.65322 -1.83828,1.65322 -2.04409,0 -2.11667,0.0213 -2.11667,0.62045 0,0.34125 0.21773,0.8175 0.48385,1.05833 0.56233,0.5089 2.17608,0.58254 2.63823,0.12039 0.22812,-0.22812 0.39826,-0.23674 0.60438,-0.0306 0.46306,0.46305 -0.77696,1.14187 -2.08589,1.14187 -0.92061,0 -1.30752,-0.15541 -1.92551,-0.7734 z m 3.32525,-3.45994 c -0.18392,-0.76583 -0.817,-1.32291 -1.50338,-1.32291 -0.92524,0 -2.02847,1.64414 -1.27235,1.89618 0.14552,0.0485 0.86533,0.0882 1.59958,0.0882 1.28997,0 1.32964,-0.0223 1.17615,-0.66146 z m 2.51594,1.19063 c 0,-2.82222 0.0368,-3.04271 0.50712,-3.04271 0.27891,0 0.54844,0.12397 0.59894,0.27549 0.0572,0.17172 0.42841,0.10758 0.98536,-0.17026 1.0922,-0.54486 2.10609,-0.27418 2.59541,0.69291 0.19035,0.37621 0.33412,1.64663 0.33635,2.97217 0.004,2.14002 -0.0361,2.31511 -0.52527,2.31511 -0.48461,0 -0.52916,-0.17639 -0.52916,-2.09503 0,-2.37116 -0.11924,-2.83565 -0.82488,-3.2133 -0.517,-0.27669 -1.48744,0.0591 -1.88305,0.65158 -0.10691,0.16012 -0.19621,1.27339 -0.19844,2.47393 -0.004,2.00508 -0.0471,2.18282 -0.53322,2.18282 -0.49849,0 -0.52916,-0.17639 -0.52916,-3.04271 z m 7.38798,2.26931 c -0.67206,-0.67206 -0.7734,-0.96902 -0.7734,-2.26635 0,-0.82113 0.12259,-1.72202 0.27243,-2.00199 0.43293,-0.80894 1.7797,-1.37926 2.80347,-1.1872 0.92511,0.17355 1.95118,1.04051 1.95118,1.64862 0,0.57712 -0.81621,0.38979 -1.37018,-0.31448 -0.62812,-0.79851 -1.3566,-0.84508 -2.0694,-0.13229 -0.72217,0.72217 -0.75123,3.1566 -0.0453,3.79545 0.6599,0.59721 1.61173,0.54993 2.31976,-0.11523 0.32382,-0.30421 0.80774,-0.50837 1.07538,-0.45368 0.42399,0.0866 0.37856,0.20892 -0.35291,0.94999 -1.15415,1.16929 -2.68784,1.20034 -3.81102,0.0772 z m 5.84118,-2.23845 c 0,-2.78934 0.0391,-3.02208 0.52917,-3.15023 0.50729,-0.13266 0.52917,-0.008 0.52917,3.01185 0,2.97384 -0.0296,3.15023 -0.52917,3.15023 -0.49818,0 -0.52917,-0.17639 -0.52917,-3.01185 z m 3.3483,2.52799 c -0.60105,-0.66416 -0.55568,-1.97336 0.0886,-2.55643 0.29798,-0.26967 1.10181,-0.53174 1.85208,-0.60383 1.1865,-0.11401 1.3256,-0.19385 1.3256,-0.76084 0,-0.41895 -0.22401,-0.73554 -0.66146,-0.93485 -0.67374,-0.30698 -1.19271,-0.16448 -2.30241,0.63217 -0.78159,0.5611 -0.87644,-0.039 -0.12494,-0.79049 0.57291,-0.57291 0.96581,-0.71958 1.92757,-0.71958 1.78147,0 2.21957,0.65431 2.21957,3.31496 0,1.13614 0.0723,2.25405 0.1606,2.48423 0.11423,0.29767 0.004,0.41852 -0.38126,0.41852 -0.29802,0 -0.61564,-0.11939 -0.70582,-0.2653 -0.10961,-0.17735 -0.32831,-0.17735 -0.65968,0 -0.80416,0.43037 -2.25605,0.31449 -2.73846,-0.21856 z m 2.82302,-0.69265 c 0.31634,-0.23978 0.45316,-0.62451 0.39687,-1.11606 -0.0777,-0.67869 -0.17238,-0.74313 -0.9939,-0.67647 -1.04966,0.0852 -1.60554,0.46479 -1.60554,1.09643 0,1.01027 1.26192,1.40908 2.20257,0.6961 z m 7.90896,0.76357 c -0.98123,-0.68728 -1.38028,-1.79178 -1.38028,-3.8204 0,-2.17454 0.44032,-3.24322 1.57884,-3.83198 1.56958,-0.81166 3.407,-0.38658 4.24089,0.98112 0.66273,1.08697 0.66197,1.26336 -0.005,1.26336 -0.32442,0 -0.6325,-0.25455 -0.78109,-0.64537 -0.52661,-1.38508 -2.0574,-1.57738 -3.22915,-0.40563 -0.78044,0.78044 -0.79858,0.85609 -0.70411,2.93633 0.0844,1.85787 0.1777,2.20063 0.71845,2.63851 0.82047,0.66437 2.26655,0.65164 2.94411,-0.0259 0.29104,-0.29104 0.52917,-0.64823 0.52917,-0.79375 0,-0.14552 0.23812,-0.26458 0.52917,-0.26458 0.29104,0 0.52916,0.0654 0.52916,0.14543 0,0.42544 -0.86764,1.72758 -1.30826,1.96339 -0.77444,0.41447 -2.99053,0.32943 -3.66146,-0.14051 z m 6.55722,-2.62977 c 0,-2.86632 0.0307,-3.04271 0.52917,-3.04271 0.29104,0 0.52917,0.11352 0.52917,0.25228 0,0.13875 0.35202,0.0502 0.78227,-0.19669 0.59199,-0.33975 0.85669,-0.37455 1.0882,-0.14304 0.38785,0.38785 0.0955,0.8812 -0.52216,0.8812 -0.98581,0 -1.34831,0.84143 -1.34831,3.12969 0,1.98559 -0.0432,2.16198 -0.52917,2.16198 -0.49849,0 -0.52917,-0.17639 -0.52917,-3.04271 z m 4.49792,0 c 0,-2.86632 0.0307,-3.04271 0.52917,-3.04271 0.49849,0 0.52916,0.17639 0.52916,3.04271 0,2.86632 -0.0307,3.04271 -0.52916,3.04271 -0.49849,0 -0.52917,-0.17639 -0.52917,-3.04271 z m 3.175,2.51354 c -1.38509,-1.38509 -0.0501,-3.175 2.36811,-3.175 0.86508,0 1.07147,-0.094 1.07147,-0.48816 0,-0.62553 -0.81269,-1.36392 -1.50118,-1.36392 -0.29341,0 -0.74897,0.23812 -1.01236,0.52916 -0.54791,0.60544 -1.19062,0.69899 -1.19062,0.1733 0,-1.12153 2.30048,-1.82521 3.66321,-1.12052 0.45909,0.23741 0.84732,0.45835 0.86274,0.491 0.0154,0.0326 0.10472,1.27986 0.19844,2.7716 0.16698,2.65789 0.15891,2.71224 -0.40287,2.71198 -0.31529,-1.5e-4 -0.62783,-0.1491 -0.69453,-0.331 -0.097,-0.26459 -0.19138,-0.26459 -0.47184,0 -0.55798,0.5264 -2.28424,0.40789 -2.89057,-0.19844 z m 2.85154,-0.67646 c 0.39061,-0.27359 0.58804,-0.6847 0.58804,-1.22444 0,-0.80627 -0.009,-0.81119 -1.11135,-0.63485 -1.26889,0.2029 -1.79906,0.55427 -1.79906,1.19231 0,1.04624 1.26302,1.40898 2.32237,0.66698 z m 4.02108,0.52694 c -0.14192,-0.37327 -0.25804,-1.63732 -0.25804,-2.80898 0,-2.00004 -0.0323,-2.12184 -0.52916,-1.99192 -0.34393,0.0899 -0.52917,0.008 -0.52917,-0.23373 0,-0.20465 0.23812,-0.3721 0.52917,-0.3721 0.40681,0 0.52916,-0.17639 0.52916,-0.76289 0,-0.53315 0.15496,-0.80341 0.51454,-0.89745 0.41869,-0.10949 0.52958,0.0203 0.59531,0.69675 0.0619,0.63702 0.22347,0.85152 0.69134,0.91784 0.33581,0.0476 0.56286,0.2262 0.50457,0.39688 -0.0583,0.17068 -0.36757,0.27227 -0.68728,0.22576 -0.56591,-0.0823 -0.57925,-0.0228 -0.50457,2.24896 0.0721,2.19149 0.11295,2.33867 0.67203,2.41807 1.00171,0.14227 0.72145,0.8415 -0.33728,0.8415 -0.75762,0 -0.981,-0.12734 -1.19062,-0.67869 z m 3.71071,-2.51571 c 0,-2.89971 0.0427,-3.18622 0.46302,-3.10566 0.40442,0.0775 0.47246,0.48179 0.53757,3.1944 0.0713,2.9699 0.051,3.10566 -0.46302,3.10566 -0.51068,0 -0.53757,-0.15976 -0.53757,-3.1944 z m 3.6393,0.61471 c -1.44419,-3.76337 -1.38695,-3.50573 -0.77892,-3.50573 0.43455,0 0.6689,0.39981 1.24066,2.11667 0.38771,1.16416 0.79,2.11666 0.894,2.11666 0.10399,0 0.48793,-0.92273 0.85318,-2.05052 0.53375,-1.64804 0.77699,-2.06698 1.23922,-2.13439 l 0.57511,-0.0839 -0.69053,1.80366 c -0.37979,0.99202 -0.87643,2.36921 -1.10365,3.06043 -0.63474,1.93097 -1.08232,1.66534 -2.22907,-1.32291 z m 5.62112,2.05052 c -1.32514,-1.32514 -0.14818,-3.175 2.02005,-3.175 1.02877,0 1.15495,-0.0665 1.15495,-0.60854 0,-1.26555 -1.15434,-1.62268 -2.30905,-0.71438 -0.63601,0.50029 -1.39512,0.70677 -1.39512,0.37948 0,-0.97218 1.64981,-1.84887 3.00198,-1.5952 1.44182,0.27049 1.68976,0.77226 1.80998,3.66312 0.0957,2.30092 0.0583,2.57969 -0.34591,2.57969 -0.24926,0 -0.49858,-0.13614 -0.55404,-0.30253 -0.0757,-0.22698 -0.24201,-0.22698 -0.66612,0 -0.87284,0.46713 -2.12763,0.36245 -2.71672,-0.22664 z m 2.66323,-0.53848 c 0.35675,-0.19093 0.51177,-0.5552 0.51177,-1.20261 0,-0.92858 -1.5e-4,-0.9287 -0.99219,-0.74994 -1.17723,0.21212 -1.65365,0.54274 -1.65365,1.14759 0,0.96082 1.08097,1.36856 2.13407,0.80496 z m -96.59077,-2.43808 c 4.2e-4,-0.41721 0.34082,-0.46302 3.44004,-0.46302 2.82218,0 3.43959,0.0686 3.43959,0.38216 0,0.30943 -0.65479,0.39756 -3.44005,0.46302 -3.13079,0.0736 -3.44,0.0392 -3.43958,-0.38216 z m 26.72338,-3.85311 c 0,-0.11829 0.34601,-0.54658 0.76891,-0.95175 0.88103,-0.84408 1.4789,-0.773 2.23365,0.26554 0.65565,0.90218 0.33427,1.14557 -0.49007,0.37115 l -0.66041,-0.62043 -0.61237,0.57529 c -0.61596,0.57867 -1.23971,0.7599 -1.23971,0.3602 z m 19.04999,-0.57866 c 0,-0.4356 0.13714,-0.5465 0.59532,-0.48143 0.32742,0.0465 0.59531,0.26314 0.59531,0.48143 0,0.21828 -0.26789,0.43492 -0.59531,0.48142 -0.45818,0.0651 -0.59532,-0.0458 -0.59532,-0.48142 z m 24.99793,0.25617 c -0.10275,-0.16625 -0.0623,-0.42678 0.0898,-0.57894 0.35558,-0.35558 1.18458,-0.0454 1.03991,0.38905 -0.14726,0.4423 -0.89597,0.56815 -1.12975,0.18989 z m 13.75834,0 c -0.10276,-0.16625 -0.0623,-0.42678 0.0898,-0.57894 0.35558,-0.35558 1.18458,-0.0454 1.03992,0.38905 -0.14727,0.4423 -0.89598,0.56815 -1.12975,0.18989 z"
       id="path1" /></g></svg>
