<?xml version="1.0" encoding="UTF-8" standalone="no"?>
<!-- Created with Inkscape (http://www.inkscape.org/) -->

<svg
   version="1.1"
   id="svg1"
   width="426.5"
   height="143.57201"
   viewBox="0 0 426.5 143.57201"
   sodipodi:docname="logo-nimbo.svg"
   inkscape:version="1.4.2 (f4327f4, 2025-05-13)"
   xmlns:inkscape="http://www.inkscape.org/namespaces/inkscape"
   xmlns:sodipodi="http://sodipodi.sourceforge.net/DTD/sodipodi-0.dtd"
   xmlns="http://www.w3.org/2000/svg"
   xmlns:svg="http://www.w3.org/2000/svg">
  <defs
     id="defs1" />
  <sodipodi:namedview
     id="namedview1"
     pagecolor="#ffffff"
     bordercolor="#000000"
     borderopacity="0.25"
     inkscape:showpageshadow="2"
     inkscape:pageopacity="0.0"
     inkscape:pagecheckerboard="0"
     inkscape:deskcolor="#d1d1d1"
     inkscape:zoom="0.78808594"
     inkscape:cx="189.70012"
     inkscape:cy="62.810409"
     inkscape:window-width="1920"
     inkscape:window-height="1009"
     inkscape:window-x="-8"
     inkscape:window-y="-8"
     inkscape:window-maximized="1"
     inkscape:current-layer="g1" />
  <g
     inkscape:groupmode="layer"
     inkscape:label="Image"
     id="g1"
     transform="translate(-322.64684,-448.94876)">
    <g
       id="g2"
       transform="translate(26.646841,8.8822826)">
      <path
         style="fill:#14cbca"
         d="m 379.75,582.75457 c -5.49329,-2.27852 -2.65317,-5.98469 3.35688,-4.38052 4.86373,1.2982 9.20177,-0.60754 9.72788,-4.27354 0.32238,-2.24639 0.24943,-2.27289 -1.9725,-0.71658 -7.30178,5.11436 -17.17692,-2.86046 -14.71575,-11.88393 1.73736,-6.36975 9.45885,-9.566 14.52951,-6.01437 1.88637,1.32127 2.18708,1.31351 2.71804,-0.0701 0.35619,-0.92821 1.50638,-1.42663 2.85147,-1.23563 2.07719,0.29497 2.27903,0.90991 2.56678,7.82014 0.67282,16.15773 -1.82417,21.10943 -10.89287,21.60128 -2.98069,0.16167 -6.65694,-0.21936 -8.16944,-0.84671 z M 392.23469,567.6003 C 394.7231,563.87355 391.38434,558 386.77749,558 384.00591,558 381,561.66707 381,565.04827 c 0,5.28399 8.17114,7.14011 11.23469,2.55203 z m -44.15781,-5.11271 c 3.20123,-7.43182 6.04872,-13.88179 6.32774,-14.33327 0.27903,-0.45147 1.7873,-0.633 3.35173,-0.40339 2.57066,0.37729 3.33382,1.54017 7.92993,12.08327 7.11478,16.32072 7.08099,16.1658 3.52577,16.1658 -2.43905,0 -3.0774,-0.53784 -3.85737,-3.25 -0.93336,-3.24552 -0.94406,-3.25012 -7.7634,-3.33795 -6.82575,-0.0879 -6.82937,-0.0865 -8.22344,3.25 C 348.24802,575.34217 347.40985,576 345.11481,576 h -2.85835 z m 13.63983,1.26241 c -4.47798,-11.25654 -4.24683,-11.16753 -7.20761,-2.77578 L 353.08872,565 h 4.56263 c 3.24864,0 4.41942,-0.35999 4.06536,-1.25 z m 48.47033,10.63987 c -4.51854,-1.97354 -6.81236,-7.35939 -5.29346,-12.42899 1.51864,-5.0688 4.24628,-7.17182 10.02168,-7.72676 4.29341,-0.41254 5.2652,-0.14457 7.46947,2.0597 2.73994,2.73994 4.17625,6.80191 3.2545,9.20394 -0.44218,1.15232 -2.33079,1.50224 -8.10785,1.50224 -7.41563,0 -8.84472,0.66513 -6.18027,2.87643 1.61245,1.33821 5.20506,1.65174 8.64889,0.75479 1.375,-0.35812 3.175,-0.1875 4,0.37914 1.28343,0.88152 1.15915,1.3161 -0.86078,3.00996 -2.78202,2.33291 -8.10895,2.4849 -12.95218,0.36955 z M 421,561.47856 c 0,-0.83679 -1.1669,-2.05311 -2.5931,-2.70293 -2.07659,-0.94616 -3.10634,-0.8921 -5.16982,0.27144 C 408.58039,561.67282 409.31218,563 415.41667,563 419.74793,563 421,562.65882 421,561.47856 Z M 433,565 v -11 h 2.5 c 1.375,0 2.5,0.46583 2.5,1.03518 0,0.71358 0.60093,0.71358 1.93426,0 3.54076,-1.89495 8.95923,-1.23259 11.61119,1.41937 2.22604,2.22603 2.45455,3.25628 2.45455,11.06642 v 8.61187 l -2.7242,-0.31642 c -2.62682,-0.30511 -2.73218,-0.54877 -2.94754,-6.81642 -0.12284,-3.575 -0.24695,-7.04667 -0.2758,-7.71482 -0.0949,-2.19795 -3.8166,-3.47976 -6.30246,-2.17066 -3.35118,1.76479 -3.71796,2.76018 -3.73469,10.13548 -0.0148,6.52925 -0.0971,6.75 -2.51531,6.75 H 433 Z m 32.76257,9.43461 C 462.75968,572.80526 460,568.28705 460,565 c 0,-2.93532 2.56992,-7.58536 5.21679,-9.4393 3.22624,-2.25974 9.95798,-1.99767 13.14835,0.51188 1.44917,1.13992 2.63486,2.45959 2.63486,2.93261 0,1.4242 -4.12014,2.27467 -5.30066,1.09415 -1.70576,-1.70576 -6.21019,-1.29733 -8.04435,0.7294 -2.12481,2.34789 -2.12144,6.56195 0.007,8.69033 1.61603,1.61603 5.74892,1.67968 9.33807,0.14382 0.825,-0.35304 2.175,-0.18851 3,0.36561 1.26788,0.85159 1.06581,1.39159 -1.30576,3.4895 -3.25095,2.87581 -8.61955,3.25634 -12.93167,0.91661 z M 487,565 c 0,-10.90863 0.0197,-11 2.37219,-11 1.99239,0 2.47411,0.63737 3.00876,3.98088 0.35011,2.18948 0.34301,7.13948 -0.0158,11 C 491.75903,575.50265 491.54583,576 489.3564,576 487.02401,576 487,575.88791 487,565 Z m 13.65499,9.17126 C 499.74474,573.16545 499,570.94097 499,569.22796 499,565.08739 502.09106,563 508.22251,563 c 5.02469,0 5.80267,-0.83197 3.20606,-3.42857 -1.87114,-1.87114 -4.73783,-2.01975 -7.36094,-0.38159 -1.50679,0.941 -2.25738,0.89758 -3.5891,-0.20766 -1.56195,-1.2963 -1.52361,-1.52726 0.52958,-3.18983 2.98234,-2.41496 10.99715,-2.41843 13.9763,-0.006 2.40199,1.94502 3.90162,7.78328 3.97204,15.46371 0.0402,4.38127 -0.14594,4.75 -2.39743,4.75 -1.34254,0 -2.71985,-0.45122 -3.06069,-1.0027 -0.41425,-0.67028 -1.24086,-0.67028 -2.49328,0 -3.03932,1.62659 -8.5268,1.18864 -10.35006,-0.82604 z m 10.41075,-3.20644 c 1.06384,-0.56935 1.93426,-1.69435 1.93426,-2.5 0,-2.13141 -7.57364,-2.01827 -8.39626,0.12542 -1.24646,3.24823 2.35603,4.57203 6.462,2.37458 z M 545.5,574.13944 c -5.16976,-3.19333 -6.80717,-5.79838 -7.28784,-11.59463 -0.54514,-6.57365 1.98017,-11.45913 7.20473,-13.93835 8.0144,-3.80308 21.86283,0.5968 16.33028,5.18841 -0.88421,0.73383 -1.82315,0.62274 -3.19113,-0.37755 C 557.48997,552.63779 554.88329,552 552.76342,552 547.17971,552 544,555.44697 544,561.5 c 0,8.06013 6.56173,11.84648 13.92825,8.0371 2.58225,-1.33533 2.97978,-1.29621 4.55889,0.44869 1.65974,1.83399 1.59363,1.99469 -1.62859,3.95916 -4.27799,2.60812 -11.30696,2.69713 -15.35855,0.19449 z M 569.99289,571.75 c -0.004,-2.3375 -0.29398,-7.2875 -0.6446,-11 l -0.6375,-6.75 h 3.06127 c 1.6837,0 3.26752,0.5625 3.51961,1.25 0.36666,1 0.72333,1 1.78333,0 2.31387,-2.1829 4.925,-1.52018 4.925,1.25 0,1.76333 -0.54367,2.5 -1.84501,2.5 C 576.59975,559 575,562.20533 575,569.32874 575,575.77808 574.91684,576 572.5,576 c -2.27339,0 -2.50064,-0.38523 -2.50711,-4.25 z M 589,565 v -11 h 2.5 2.5 v 11 11 h -2.5 -2.5 z m 13,9 c -1.1,-1.1 -2,-3.125 -2,-4.5 0,-4.11441 3.28147,-6.5 8.94098,-6.5 5.85499,0 7.10108,-1.27111 3.53604,-3.60702 -2.04186,-1.33787 -3.26094,-1.48795 -5.78759,-0.7125 C 602.92964,559.83439 601,559.39736 601,557.39192 601,555.51721 605.08925,554 610.14202,554 c 3.10079,0 4.67562,0.6638 6.9349,2.92308 2.74823,2.74823 2.92308,3.4062 2.92308,11 0,7.89664 -0.0545,8.07692 -2.44098,8.07692 -1.34254,0 -2.71985,-0.45122 -3.06069,-1.0027 -0.41425,-0.67028 -1.24086,-0.67028 -2.49328,0 C 608.94588,576.63452 604.15718,576.15718 602,574 Z m 10.47135,-3.35539 c 2.81179,-2.05604 1.35178,-4.41903 -2.39096,-3.86972 -3.4571,0.5074 -4.53268,1.60408 -3.70039,3.773 0.70018,1.82462 3.66394,1.87168 6.09135,0.0967 z m 18.92835,4.61638 C 629.18496,573.72922 628,570.0014 628,564.56574 628,560.28508 627.65366,559 626.5,559 c -0.93333,0 -1.5,-0.94444 -1.5,-2.5 0,-1.55556 0.56667,-2.5 1.5,-2.5 0.93333,0 1.5,-0.94444 1.5,-2.5 0,-2.11111 0.46667,-2.5 3,-2.5 2.53333,0 3,0.38889 3,2.5 0,2 0.5,2.5 2.5,2.5 2,0 2.5,0.5 2.5,2.5 0,2 -0.5,2.5 -2.5,2.5 -2.38578,0 -2.5,0.27109 -2.5,5.93358 0,5.72962 0.0945,5.94445 2.75,6.25 1.97786,0.22758 2.75,0.87798 2.75,2.31642 0,1.56933 -0.75366,2.0562 -3.5,2.26099 -1.925,0.14355 -3.99513,-0.0815 -4.6003,-0.5 z M 646,565.06642 C 646,554.01636 646.00359,554 648.42804,554 c 2.18059,0 2.49372,0.53507 3.07238,5.25 0.35438,2.8875 0.49926,7.725 0.32196,10.75 -0.30268,5.16384 -0.49046,5.51934 -3.07238,5.81642 l -2.75,0.31642 z m 18.07721,8.68358 c -1.54507,-3.9808 -4.86443,-12.14264 -6.5071,-16 L 655.97316,554 h 3.01342 c 1.65738,0 3.01342,0.38776 3.01342,0.86168 0,0.47393 1.39191,3.93149 3.09314,7.68346 l 3.09314,6.82177 3.20595,-7.43345 c 2.72355,-6.31493 3.60582,-7.48044 5.86336,-7.74568 l 2.65741,-0.31223 -4.4565,10.78488 C 673.00543,570.59211 671,575.57011 671,575.72265 671,575.87519 669.63886,576 667.97525,576 c -2.21136,0 -3.25959,-0.60505 -3.89804,-2.25 z m 20.37734,-0.20455 C 683.10455,572.19545 682,570.375 682,569.5 c 0,-0.875 1.10455,-2.69545 2.45455,-4.04545 1.87658,-1.87659 3.51093,-2.45455 6.94098,-2.45455 4.92406,0 6.40128,-1.09382 4.07952,-3.02071 -0.9771,-0.81092 -3.03897,-1.03678 -5.89331,-0.64555 -3.11238,0.4266 -4.72319,0.20075 -5.53373,-0.77589 -2.72691,-3.28573 7.14335,-5.95639 13.32609,-3.60572 3.53961,1.34576 4.39939,3.52521 4.89735,12.41433 0.46628,8.32347 -0.54123,10.19517 -4.24339,7.88313 -1.03925,-0.64902 -2.2588,-0.71674 -3.11754,-0.17313 -2.78234,1.76133 -7.91522,1.00975 -10.45597,-1.53101 z M 695.8,570.8 c 2.36091,-2.36091 1.32287,-3.8 -2.74098,-3.8 -4.13628,0 -5.61129,1.11843 -4.67902,3.54789 0.67308,1.754 5.74575,1.92636 7.42,0.25211 z M 296,565 c 0,-1.91667 0.66667,-2 16,-2 15.33333,0 16,0.0833 16,2 0,1.91667 -0.66667,2 -16,2 -15.33333,0 -16,-0.0833 -16,-2 z M 409,550.07258 C 409,548.67512 414.03371,545 415.94777,545 c 0.92293,0 2.97143,1.35 4.55223,3 2.76606,2.88715 2.7914,3 0.67352,3 -1.21036,0 -3.08332,-0.55123 -4.16213,-1.22496 -1.54779,-0.96661 -2.21982,-0.96661 -3.18643,0 C 412.39013,551.20987 409,551.41893 409,550.07258 Z m 78.52865,-0.42797 c -1.14868,-0.83994 -1.6103,-1.98946 -1.21381,-3.02268 0.88465,-2.30536 3.4161,-3.09012 5.19789,-1.61136 1.95356,1.62131 1.90096,4.61671 -0.0945,5.38244 -2.01653,0.77382 -1.73326,0.82832 -3.88956,-0.7484 z m 101.62296,0.48431 c -1.73333,-1.11653 -1.14778,-4.10209 1.07963,-5.50479 1.34051,-0.84417 2.1266,-0.69486 3.48305,0.66158 2.92058,2.92059 -1.03278,7.11701 -4.56268,4.84321 z m 57.46231,-0.65786 c -1.69257,-1.69257 -1.2314,-4.02013 0.9634,-4.86236 1.86976,-0.71749 4.13414,0.19699 4.80287,1.93968 C 652.91756,547.94875 650.6007,551 649,551 c -0.47143,0 -1.54517,-0.68802 -2.38608,-1.52894 z"
         id="path3" />
      <path
         style="fill:#6b3774"
         d="m 666.25067,523.45486 c -11.224,-3.02237 -19.63483,-8.88737 -25.28776,-17.63354 -15.7896,-24.42958 -3.45587,-57.01287 24.38728,-64.42639 6.93737,-1.84715 20.05814,-1.75358 26.71831,0.19053 12.2307,3.57016 21.87253,11.65313 27.03214,22.66167 3.22022,6.87067 3.39936,7.83254 3.39936,18.25287 0,10.50311 -0.15276,11.30441 -3.38187,17.73901 -9.49138,18.91339 -32.05266,28.82079 -52.86746,23.21585 z m 23.46428,-17.30944 c 11.8244,-6.03236 17.26213,-22.38267 11.79534,-35.46654 -4.84813,-11.60322 -18.53421,-17.44846 -31.65185,-13.51832 -12.69043,3.80214 -19.60467,18.80783 -15.39509,33.41133 1.36256,4.72683 2.77272,6.964 6.95895,11.04003 3.22899,3.14401 6.75679,5.53298 9.1639,6.20567 5.51892,1.5423 14.33922,0.77127 19.12875,-1.67217 z M 296,482 v -41 l 7.75,0.058 7.75,0.0581 20,25.01145 20,25.01145 0.26717,-25.0695 L 352.03434,441 H 361.51717 371 v 41 41 h -8.37402 -8.37402 L 334.37598,498.28156 314.5,473.56312 314.23253,498.28156 313.96506,523 H 304.98253 296 Z m 97,0 v -41 h 9.5 9.5 v 41 41 h -9.5 -9.5 z m 41,0 v -41 h 7.97695 c 7.19582,0 8.11241,0.22033 9.36037,2.25 0.76088,1.2375 7.40876,12.67005 14.77305,25.40568 7.3643,12.73562 13.56007,22.99017 13.7684,22.7879 0.20832,-0.20228 6.74689,-11.52233 14.53016,-25.15568 l 14.1514,-24.7879 8.21984,-0.29044 8.21983,-0.29044 0.11386,22.29044 c 0.0626,12.25974 0.26803,30.72794 0.45645,41.04044 L 525.9129,523 h -8.93898 -8.93898 L 507.76747,498.25665 507.5,473.5133 l -6.0627,10.49335 c -3.33448,5.77134 -8.50948,14.87138 -11.5,20.2223 l -5.4373,9.72895 -5,-0.01 -5,-0.01 -10.9563,-18.96945 c -6.02596,-10.4332 -11.20096,-18.96978 -11.5,-18.97018 -0.29903,-4.1e-4 -0.39446,10.57459 -0.21205,23.5 L 452.16329,523 H 443.08165 434 Z m 114,0.0571 V 441 h 22.36351 c 12.29993,0 24.77171,0.4567 27.71505,1.0149 11.62865,2.20533 18.16303,7.6022 19.79751,16.35115 1.37092,7.33817 -0.33272,13.14324 -5.32123,18.13175 l -4.22502,4.22501 3.40086,1.83148 c 11.17273,6.01692 14.30803,21.04373 6.53411,31.31652 -1.42659,1.88514 -5.02209,4.5296 -8.15783,6 -5.58033,2.6167 -5.74115,2.63065 -33.85696,2.93631 L 548,523.11424 Z m 46.47494,26.84487 C 600.08306,507.48985 603.2,504.20261 603.2,499.70021 603.2,490.76603 599.46165,489 580.54966,489 H 566 v 2.84912 c 0,1.56702 0.29103,6.29202 0.64674,10.5 L 567.29347,510 h 11.41045 c 6.27574,0 13.3727,-0.4941 15.77102,-1.09801 z m -1.02331,-35.31733 C 597.36723,471.94861 599,469.42233 599,465 c 0,-7.87554 -4.34832,-10 -20.46788,-10 H 567 l -0.11111,5.5 c -0.0611,3.025 -0.11111,6.4 -0.11111,7.5 0,1.1 0.05,3.125 0.11111,4.5 L 567,475 h 11.53212 c 7.68197,0 12.66304,-0.47253 14.91951,-1.41534 z"
         id="path2" />
    </g>
  </g>
</svg>
