<?xml version="1.0" encoding="UTF-8" standalone="no"?>
<!-- Created with Inkscape (http://www.inkscape.org/) -->

<svg
   version="1.1"
   id="svg1"
   width="1024.0001"
   height="854"
   viewBox="0 0 1024.0001 854"
   sodipodi:docname="brand-2.svg"
   inkscape:version="1.4.2 (f4327f4, 2025-05-13)"
   xmlns:inkscape="http://www.inkscape.org/namespaces/inkscape"
   xmlns:sodipodi="http://sodipodi.sourceforge.net/DTD/sodipodi-0.dtd"
   xmlns="http://www.w3.org/2000/svg"
   xmlns:svg="http://www.w3.org/2000/svg">
  <defs
     id="defs1" />
  <sodipodi:namedview
     id="namedview1"
     pagecolor="#ffffff"
     bordercolor="#000000"
     borderopacity="0.25"
     inkscape:showpageshadow="2"
     inkscape:pageopacity="0.0"
     inkscape:pagecheckerboard="0"
     inkscape:deskcolor="#d1d1d1"
     inkscape:zoom="0.94496487"
     inkscape:cx="503.19331"
     inkscape:cy="464.03841"
     inkscape:window-width="1920"
     inkscape:window-height="1009"
     inkscape:window-x="-8"
     inkscape:window-y="-8"
     inkscape:window-maximized="1"
     inkscape:current-layer="g1" />
  <g
     inkscape:groupmode="layer"
     inkscape:label="Image"
     id="g1"
     transform="translate(-461.39282,-47.620818)">
    <path
       style="fill:#222121"
       d="M 461.39282,474.62081 V 47.620818 h 512.00004 512.00004 v 426.999992 427 H 973.39286 461.39282 Z m 541.73308,214.1997 c 16.3718,-12.54016 43.492,-33.28791 60.267,-46.10612 16.775,-12.8182 31.0319,-23.82057 31.6821,-24.4497 0.8732,-0.84505 1.2651,-15.43106 1.5,-55.8327 l 0.3179,-54.68883 -13,-10.48704 c -7.15,-5.76787 -14.5384,-11.79047 -16.4186,-13.38356 l -3.4185,-2.89651 16.1765,-12.32561 16.1764,-12.32561 -0.2579,-58.53233 -0.2579,-58.53233 -20.244,-15.78117 -20.2439,-15.78116 -0.2561,78.15885 -0.256,78.15885 -9.0507,7.05263 c -4.9779,3.87895 -21.9875,17.13304 -37.7992,29.45353 -15.81164,12.32048 -28.38884,22.73508 -27.94934,23.14354 0.4396,0.40847 5.1891,4.39101 10.5546,8.85009 l 9.75554,8.10743 17.058,-13.55671 c 9.3818,-7.45618 17.6791,-13.79506 18.4383,-14.08638 0.7777,-0.29843 5.3242,2.67286 10.4139,6.80573 l 9.0335,7.33541 0.023,34.07569 0.023,34.07568 -2.25,2.05007 c -1.2375,1.12754 -19.7059,15.38615 -41.041,31.68581 l -38.79104,29.63573 -23.3484,-18.01149 c -12.84171,-9.90632 -23.62327,-18.01149 -23.95908,-18.01149 -0.33581,0 -0.61056,11.6776 -0.61056,25.95023 v 25.95023 l 4.25,3.48748 c 4.77456,3.91793 43.12074,33.53134 43.48304,33.58046 0.1282,0.0174 13.6282,-10.22853 30.00004,-22.7687 z M 891.39282,583.80019 v -64.82063 l -14.99961,-11.66096 -14.99961,-11.66096 -5.98587,4.73159 -5.98586,4.73158 0.23547,55.97535 0.23548,55.97535 20.5,15.77192 c 11.275,8.67456 20.6125,15.77315 20.75,15.77465 0.1375,0.002 0.25,-29.16655 0.25,-64.81789 z m 84.72744,-80.86212 c 18.0249,-14.1255 35.58514,-27.89158 39.02264,-30.59128 l 6.25,-4.90854 v -25.90872 c 0,-14.2498 -0.2967,-25.90872 -0.6592,-25.90872 -0.9313,0 -7.4835,5.00626 -44.27564,33.82943 -30.5416,23.92643 -32.5621,25.32964 -34.6155,24.04007 -1.1994,-0.75322 -13.04224,-9.9195 -26.31747,-20.3695 l -24.1368,-19 0.25227,-36.93284 0.25226,-36.93285 8.5,-6.61952 c 19.61847,-15.27822 71.16124,-54.13945 72.47584,-54.64388 0.8542,-0.3278 9.3566,5.6198 21.2246,14.84711 10.88984,8.46668 21.48714,16.65969 23.54964,18.20667 l 3.75,2.81269 v -26.52531 -26.5253 l -12.25,-9.30567 c -6.7375,-5.11811 -17.30374,-13.26013 -23.48044,-18.09338 -6.1768,-4.83325 -11.7058,-8.78772 -12.2869,-8.78772 -0.5811,0 -7.9024,5.25797 -16.2696,11.68438 -8.3672,6.42641 -27.81314,21.35776 -43.21314,33.18077 -46.15387,35.43362 -62.96022,48.5133 -63.73469,49.60204 -0.40408,0.56804 -0.74158,26.4843 -0.75,57.59168 -0.0118,43.78088 0.26709,56.90548 1.23469,58.09306 0.6875,0.8438 9.125,7.6568 18.75,15.14 9.625,7.4832 29.875,23.50725 45,35.609 15.125,12.10175 27.82734,22.02476 28.22744,22.05113 0.4001,0.0264 15.4751,-11.50929 33.5,-25.6348 z m -20.8941,-59.26477 c 5.6834,-4.55718 9.9584,-8.59707 9.5,-8.97754 -0.4583,-0.38047 -3.5944,-3.02798 -6.9691,-5.88336 -3.3747,-2.85537 -6.5513,-5.19159 -7.059,-5.19159 -1.3243,0 -21.80524,17.01126 -21.80524,18.11123 0,1.72795 13.73634,11.93415 14.89044,11.06376 0.6103,-0.46019 5.7596,-4.56531 11.4429,-9.1225 z"
       id="path5252" />
  </g>
</svg>
