<?xml version="1.0" encoding="UTF-8" standalone="no"?>
<!-- Created with Inkscape (http://www.inkscape.org/) -->

<svg
   version="1.1"
   id="svg1"
   width="1024"
   height="864"
   viewBox="0 0 1024 864"
   sodipodi:docname="brand-5.svg"
   inkscape:version="1.4.2 (f4327f4, 2025-05-13)"
   xml:space="preserve"
   xmlns:inkscape="http://www.inkscape.org/namespaces/inkscape"
   xmlns:sodipodi="http://sodipodi.sourceforge.net/DTD/sodipodi-0.dtd"
   xmlns="http://www.w3.org/2000/svg"
   xmlns:svg="http://www.w3.org/2000/svg"><defs
     id="defs1" /><sodipodi:namedview
     id="namedview1"
     pagecolor="#ffffff"
     bordercolor="#000000"
     borderopacity="0.25"
     inkscape:showpageshadow="2"
     inkscape:pageopacity="0.0"
     inkscape:pagecheckerboard="0"
     inkscape:deskcolor="#d1d1d1"
     inkscape:zoom="0.93402778"
     inkscape:cx="471.61338"
     inkscape:cy="396.66914"
     inkscape:window-width="1920"
     inkscape:window-height="1009"
     inkscape:window-x="-8"
     inkscape:window-y="-8"
     inkscape:window-maximized="1"
     inkscape:current-layer="g1" /><g
     inkscape:groupmode="layer"
     inkscape:label="Image"
     id="g1"
     transform="translate(-1591.093,-291.74721)"><path
       style="fill:#444444"
       d="m 1591.093,723.74721 v -432 h 512 512 v 432 431.99999 h -512 -512 z m 495.7618,86.53731 -0.2618,-38.61102 -17,13.6838 c -9.35,7.52609 -17.1587,13.81387 -17.3526,13.97283 -0.194,0.15897 -0.2853,14.75752 -0.2029,32.44122 0.082,17.6837 -0.2089,31.93944 -0.6473,31.67944 -2.6219,-1.5548 -36.5879,-20.29951 -45.7865,-25.26794 -8.1078,-4.37929 -12.893,-7.79983 -18.25,-13.04531 -3.9934,-3.91031 -7.2383,-7.51031 -7.2108,-8 0.027,-0.48968 8.0017,-7.19033 17.7208,-14.89033 9.719,-7.7 35.0091,-28.1306 56.2001,-45.40132 39.5015,-32.19373 48.2203,-39.09868 49.3697,-39.09868 0.3623,0 11.5714,8.89851 24.9091,19.77448 13.3377,10.87596 40.5346,32.92306 60.4374,48.99355 19.9029,16.07049 36.4929,29.71395 36.8667,30.3188 0.8878,1.4365 -6.4683,8.96411 -14.0537,14.38134 -3.3,2.35676 -15,9.21814 -26,15.24753 -11,6.02938 -22.5875,12.42788 -25.75,14.21888 l -5.75,3.2563 -0.038,-32.34543 -0.038,-32.34545 -16.0734,-13 c -8.8404,-7.15 -16.6982,-13.35986 -17.462,-13.79969 -1.1797,-0.67937 -1.3886,10.71907 -1.3886,75.75855 v 76.55822 l 5.75,-3.1925 c 3.1625,-1.7559 18.125,-10.2357 33.25,-18.844 15.125,-8.6082 35.375,-20.0721 45,-25.4753 9.625,-5.4031 21.538,-12.5647 26.4732,-15.9146 10.5064,-7.1313 26.2921,-21.926 32.5967,-30.55022 5.4535,-7.45988 11.9304,-18.03184 11.9294,-19.47174 -4e-4,-0.5878 -3.9197,-4.21872 -8.7095,-8.06872 -45.4074,-36.49816 -133.7898,-108.85114 -133.7898,-109.52513 0,-1.12709 30.6563,-26.27822 126.5,-103.78345 11.825,-9.56244 22.9733,-18.66353 24.7739,-20.22465 l 3.2739,-2.83841 -0.2739,-17.27822 -0.2739,-17.27823 -38,-8.89701 c -20.9,-4.89335 -58.25,-13.75121 -83,-19.68413 -24.75,-5.93292 -45.116,-10.67946 -45.2577,-10.54787 -0.1418,0.13159 -0.1418,27.73161 0,61.33338 l 0.2577,61.09413 17.2474,-13.68521 17.2474,-13.6852 v -24.58334 c 0,-13.52083 0.2351,-24.81582 0.5193,-25.09997 0.2841,-0.28415 6.6966,0.95859 14.25,2.76165 11.075,2.64371 32.1195,7.5088 69.0544,15.96408 1.2765,0.29224 2.1765,0.91368 2,1.38099 -0.1766,0.4673 -12.2461,10.43524 -26.8211,22.15096 -14.575,11.71573 -40.9,33.05084 -58.5,47.41136 -47.6195,38.85456 -51.3225,41.74198 -52.5559,40.97973 -0.6195,-0.38288 -16.9479,-13.56935 -36.2852,-29.30326 -49.7726,-40.49758 -75.3531,-61.21514 -89.0464,-72.1183 -10.8004,-8.59973 -11.6602,-9.5201 -9.4942,-10.16284 1.3099,-0.38871 13.4067,-3.22696 26.8817,-6.30721 13.475,-3.08026 31.8037,-7.32833 40.7304,-9.44015 8.9266,-2.11183 16.4773,-3.59273 16.7791,-3.2909 0.3018,0.30184 0.5063,11.53129 0.4543,24.95434 -0.052,13.42305 0.082,24.58164 0.2969,24.79686 0.2152,0.21522 8.0071,6.42735 17.3153,13.80474 l 16.924,13.41344 0.2578,-61.06501 c 0.1417,-33.58576 0.1347,-61.18797 -0.015,-61.33826 -0.1503,-0.15029 -12.1913,2.61799 -26.7578,6.15172 -27.1755,6.5926 -107.4434,25.64103 -127.9845,30.37208 l -11.5,2.6487 -0.2726,17.60023 -0.2726,17.60022 6.7726,5.29482 c 12.0906,9.45241 113.9004,92.25784 136.0226,110.6319 6.1875,5.13917 11.25,9.74776 11.25,10.24131 0,0.49356 -12.0375,10.74225 -26.75,22.77487 -30.3331,24.80794 -86.0438,70.24158 -103.25,84.20328 -6.325,5.13232 -11.6388,9.68949 -11.8084,10.12703 -0.95,2.45028 10.3863,19.05065 20.3129,29.74535 14.0952,15.18576 22.7996,21.20756 65.0631,45.01166 17.5628,9.8919 40.2574,22.7003 50.4324,28.4632 l 18.5,10.4779 0.2618,-37.8024 c 0.144,-20.7914 0.144,-55.17741 0,-76.41347 z M 2286.093,693.74721 c 0,-46.75 -0.3555,-85 -0.7901,-85 -0.4346,0 -6.3971,4.63701 -13.25,10.30447 -6.8529,5.66746 -30.1421,24.62082 -51.7537,42.11857 -21.6116,17.49775 -39.1616,32.17047 -39,32.60603 0.3336,0.89905 8.2166,7.3716 64.1621,52.68172 21.9275,17.75906 40.04,32.28921 40.25,32.28921 0.2099,0 0.3817,-38.25 0.3817,-85 z m -42.75,5.77434 c -3.4375,-2.72797 -6.25,-5.36866 -6.25,-5.86819 0,-0.86503 11.1842,-10.04015 13.0911,-10.73949 1.0883,-0.39913 1.2456,20.52398 0.1589,21.14147 -0.4125,0.23439 -3.5625,-1.80582 -7,-4.53379 z m -284.0168,47.97566 c 62.6347,-50.73908 65.6709,-53.22872 65.7196,-53.88942 0.026,-0.35168 -16.4903,-14.06057 -36.7028,-30.46421 -20.2125,-16.40363 -43.5,-35.34906 -51.75,-42.10094 -8.25,-6.75188 -15.3375,-12.28048 -15.75,-12.28579 -0.4125,-0.005 -0.75,38.01536 -0.75,84.49036 0,52.4262 0.3589,84.5 0.9456,84.5 0.5201,0 17.7495,-13.6125 38.2876,-30.25 z m -3.5516,-43.47545 c -0.2568,-0.426 -0.2949,-4.82455 -0.085,-9.77455 0.2102,-4.95 0.3869,-9.60475 0.3926,-10.34389 0.01,-0.74101 2.8143,0.89757 6.2605,3.65256 3.4375,2.74805 6.25,5.42918 6.25,5.95806 0,1.38386 -12.2602,11.43407 -12.8184,10.50782 z"
       id="path4" /></g></svg>
