<?xml version="1.0" encoding="UTF-8" standalone="no"?>
<!-- Created with Inkscape (http://www.inkscape.org/) -->

<svg
   version="1.1"
   id="svg1"
   width="1024"
   height="864"
   viewBox="0 0 1024 864"
   sodipodi:docname="brand-3.svg"
   inkscape:version="1.4.2 (f4327f4, 2025-05-13)"
   xmlns:inkscape="http://www.inkscape.org/namespaces/inkscape"
   xmlns:sodipodi="http://sodipodi.sourceforge.net/DTD/sodipodi-0.dtd"
   xmlns="http://www.w3.org/2000/svg"
   xmlns:svg="http://www.w3.org/2000/svg">
  <defs
     id="defs1" />
  <sodipodi:namedview
     id="namedview1"
     pagecolor="#ffffff"
     bordercolor="#000000"
     borderopacity="0.25"
     inkscape:showpageshadow="2"
     inkscape:pageopacity="0.0"
     inkscape:pagecheckerboard="0"
     inkscape:deskcolor="#d1d1d1"
     inkscape:zoom="0.93402778"
     inkscape:cx="517.65056"
     inkscape:cy="388.10409"
     inkscape:window-width="1920"
     inkscape:window-height="1009"
     inkscape:window-x="-8"
     inkscape:window-y="-8"
     inkscape:window-maximized="1"
     inkscape:current-layer="g1" />
  <g
     inkscape:groupmode="layer"
     inkscape:label="Image"
     id="g1"
     transform="translate(-729.10037,-129.54647)">
    <path
       style="fill:#474747"
       d="m 729.10037,561.54647 v -432 h 512.00003 512 v 432 432 h -512 -512.00003 z M 1131.56,801.96893 c 23.7524,-2.87343 48.5455,-8.68977 68.4317,-16.05376 10.7716,-3.9888 28.1884,-11.31538 29.4033,-12.3689 0.437,-0.37898 -2.938,-3.09624 -7.5,-6.03835 -4.562,-2.94211 -12.4914,-8.52453 -17.6208,-12.40537 -5.1293,-3.88084 -9.8899,-7.45524 -10.579,-7.94311 -0.7932,-0.56162 -3.6084,0.0477 -7.6738,1.66109 -15.9056,6.31199 -43.8033,12.6703 -64.3447,14.66512 -13.71,1.33141 -32.3612,1.3478 -44.0763,0.0387 -11.9867,-1.33941 -29.6542,-4.90066 -31.4056,-6.33046 -0.7731,-0.6311 -3.7901,-4.13528 -6.7045,-7.78707 -11.1893,-14.02032 -19.7911,-31.06446 -25.576,-50.67756 l -3.1077,-10.53659 1.7873,-7.07312 c 4.8068,-19.02222 15.9794,-44.22503 28.3399,-63.9283 8.9392,-14.24947 24.8217,-33.98194 36.9127,-45.86057 l 9.8895,-9.71575 -1.3257,-7.28425 c -0.7292,-4.0063 -1.615,-14.14671 -1.9685,-22.53421 -0.3535,-8.3875 -1.0506,-15.25 -1.5492,-15.25 -1.8413,0 -24.6019,19.79113 -35.612,30.96594 -34.7666,35.28671 -59.67029,78.02197 -73.71536,126.497 l -3.75586,12.96293 2.27327,9.53707 c 7.91501,33.20587 21.92063,60.92725 44.09985,87.28699 8.8906,10.56643 7.7261,9.90297 23.9179,13.62662 7.2871,1.67583 22.0295,4.14831 32.5,5.45064 8.9985,1.11925 47.0564,0.53525 58.9596,-0.90473 z m 295.3298,0.52302 c 10.4809,-1.13816 31.1314,-5.02858 40.5417,-7.63777 5.5394,-1.5359 6.2739,-2.13821 14.6789,-12.03725 20.5526,-24.20606 32.451,-46.87256 41.0308,-78.16384 4.4416,-16.19923 4.6051,-17.9771 2.3862,-25.95271 -17.3411,-62.32999 -51.2229,-114.23924 -100.9282,-154.62899 -5.0933,-4.13871 -9.4958,-7.52492 -9.7834,-7.52492 -0.2876,0 -0.8047,4.8375 -1.149,10.75 -0.3442,5.9125 -1.3216,16.15 -2.1719,22.75 l -1.5459,12 12.8505,13 c 28.8439,29.17944 49.2898,63.19703 60.7236,101.03092 l 3.6359,12.03091 -4.1275,12.96909 c -4.9928,15.68766 -11.0293,28.59884 -18.5028,39.57428 -8.9411,13.13094 -12.3867,16.80538 -16.91,18.03337 -26.2255,7.11959 -66.5038,7.67598 -98.0329,1.35419 -72.212,-14.47896 -133.3861,-55.18877 -171.9212,-114.409 -6.207,-9.53884 -15.6311,-27.62625 -19.0614,-36.58376 -1.4743,-3.85 -3.2617,-8.35 -3.9719,-10 -5.641,-13.10549 -12.5182,-43.96656 -14.5964,-65.5 -1.4358,-14.87677 -0.6728,-43.93714 1.531,-58.31224 7.7636,-50.64114 28.33,-94.99816 59.7889,-128.95043 l 6.266,-6.76267 11.9898,-2.64453 c 15.2417,-3.36179 38.8126,-3.84057 52.5421,-1.06725 17.528,3.54057 17.7632,3.66681 27.9372,14.99475 22.5111,25.06446 40.884,60.59242 49.9925,96.6713 6.162,24.40753 7.4131,35.05789 7.468,63.57107 0.039,20.41255 -0.3399,28.47137 -1.7643,37.5 -8.415,53.33932 -30.4154,98.06786 -66.5733,135.3488 -8.3364,8.59522 -21.7452,20.7794 -24.7253,22.46701 -1.8373,1.04048 -1.8343,1.1095 0.1129,2.61568 3.705,2.8658 22.9461,13.37524 29.4058,16.06135 l 6.4059,2.66372 11.4058,-11.32828 c 47.4683,-47.1457 73.4849,-99.78016 82.9553,-167.82828 2.5914,-18.62003 2.3517,-60.60064 -0.4511,-79.01255 -4.949,-32.50913 -13.182,-58.9951 -27.195,-87.48745 -13.1288,-26.69455 -26.0448,-45.60303 -46.1399,-67.54708 l -9.6584,-10.54708 -9.8642,-2.72846 c -15.012,-4.15235 -22.5527,-5.50327 -38.1334,-6.83168 -17.1108,-1.45886 -35.8338,-0.18964 -54.1027,3.66762 -21.1042,4.45589 -20.5272,4.16559 -32.2493,16.22501 -54.4887,56.05651 -83.743,143.40583 -75.3686,225.04011 6.0277,58.75846 26.0854,108.42868 61.471,152.22454 49.0908,60.75833 123.4049,101.50637 201.5188,110.49713 13.7895,1.58715 49.4287,1.84197 62.2894,0.44537 z M 1162.2246,519.98932 c 8.3491,-2.97111 34.4332,-9.27974 45.3758,-10.97448 16.7315,-2.59129 53.2838,-3.11622 71.5,-1.02683 16.4237,1.88379 37.2627,6.18978 51.1204,10.56308 5.1588,1.62803 9.7878,2.968 10.2868,2.97772 0.935,0.0182 0.09,-31.40062 -1.0252,-38.10505 l -0.6024,-3.62272 -11.6398,-3.06767 c -25.6357,-6.75629 -47.2992,-9.35185 -78.1398,-9.36211 -30.7569,-0.0102 -54.9284,3.02809 -83,10.43302 l -8.5,2.24219 -0.6193,7.5 c -0.97,11.74689 -0.9742,34 -0.01,34 0.4808,0 2.8433,-0.70072 5.25,-1.55715 z"
       id="path4" />
  </g>
</svg>
