<?xml version="1.0" encoding="UTF-8" standalone="no"?>
<!-- Created with Inkscape (http://www.inkscape.org/) -->

<svg
   version="1.1"
   id="svg1"
   width="1024"
   height="866"
   viewBox="0 0 1024 866"
   sodipodi:docname="brand-4.svg"
   inkscape:version="1.4.2 (f4327f4, 2025-05-13)"
   xml:space="preserve"
   xmlns:inkscape="http://www.inkscape.org/namespaces/inkscape"
   xmlns:sodipodi="http://sodipodi.sourceforge.net/DTD/sodipodi-0.dtd"
   xmlns="http://www.w3.org/2000/svg"
   xmlns:svg="http://www.w3.org/2000/svg"><defs
     id="defs1" /><sodipodi:namedview
     id="namedview1"
     pagecolor="#ffffff"
     bordercolor="#000000"
     borderopacity="0.25"
     inkscape:showpageshadow="2"
     inkscape:pageopacity="0.0"
     inkscape:pagecheckerboard="0"
     inkscape:deskcolor="#d1d1d1"
     inkscape:zoom="0.93402778"
     inkscape:cx="488.74349"
     inkscape:cy="461.9777"
     inkscape:window-width="1920"
     inkscape:window-height="1009"
     inkscape:window-x="-8"
     inkscape:window-y="-8"
     inkscape:window-maximized="1"
     inkscape:current-layer="g1" /><g
     inkscape:groupmode="layer"
     inkscape:label="Image"
     id="g1"
     transform="translate(-1574.435,-226.74721)"><path
       style="fill:#41474d"
       d="m 1574.435,659.74721 v -433 h 512 512 v 433 432.99999 h -512 -512 z m 442.1555,143.75 c 8.4129,-11.93065 69.1479,-92.75 69.7008,-92.75 0.6732,0 5.6879,6.64712 49.9805,66.25 l 22.1081,29.75 h 33.5275 c 18.4402,0 33.5276,-0.22002 33.5276,-0.48893 0,-0.26892 -7.7731,-10.95642 -17.2735,-23.75 -9.5005,-12.79359 -19.0507,-25.73607 -21.2228,-28.76107 -2.1721,-3.025 -12.0925,-16.525 -22.0452,-30 -24.8858,-33.69278 -58.2804,-79.06167 -68.8224,-93.5 -4.819,-6.6 -9.1261,-12 -9.5714,-12 -0.8105,0 -8.4912,10.2342 -42.7781,57 -23.4751,32.01897 -44.3021,60.19094 -73.189,99 -12.6909,17.05 -23.0796,31.3375 -23.086,31.75 -0.01,0.4125 15.0327,0.75 33.4203,0.75 h 33.4319 z m 107.8445,2.78185 c 0,-0.37002 -22.0404,-30.79852 -34.9722,-48.28185 -1.3222,-1.7875 -2.7392,-3.25 -3.1489,-3.25 -0.4097,0 -4.2626,4.8135 -8.5619,10.69666 -4.2994,5.88315 -12.6506,17.24565 -18.5584,25.25 -5.9077,8.00434 -10.7452,14.89084 -10.75,15.30334 0,0.4125 17.0914,0.75 37.9914,0.75 20.9,0 38,-0.21066 38,-0.46815 z M 2023.9467,657.91812 c 5.4455,-7.519 21.7232,-29.55461 36.1725,-48.96803 l 26.2717,-35.29712 9.8632,13.29712 c 5.4248,7.31342 20.5138,27.69712 33.531,45.29712 13.0173,17.6 25.0392,33.6875 26.7153,35.75 l 3.0475,3.75 h 33.5655 c 32.7509,0 33.5322,-0.0459 32.1936,-1.89321 -2.2738,-3.13764 -38.0726,-51.61901 -61.7355,-83.60679 -12.2059,-16.5 -30.147,-40.8 -39.8691,-54 -9.7221,-13.2 -22.1114,-30.00656 -27.5317,-37.34792 l -9.8552,-13.34792 -8.7875,11.84792 c -4.8332,6.51636 -14.5567,19.72292 -21.6079,29.34792 -18.6998,25.52583 -42.5631,57.95255 -64.0246,87 -38.3688,51.93083 -44.4605,60.30771 -44.4605,61.1388 0,0.46755 14.9874,0.81699 33.3054,0.77655 l 33.3053,-0.0735 z"
       id="path4" /></g></svg>
